<svg width="102" height="32" viewBox="0 0 102 32" fill="none" xmlns="http://www.w3.org/2000/svg">
<path fill-rule="evenodd" clip-rule="evenodd" d="M20.9854 18.8834V18.8863C20.9884 18.9736 20.9588 19.0586 20.9026 19.1243C20.8442 19.1938 20.7614 19.2367 20.672 19.2441L20.6646 19.2448H19.9233L19.9151 19.2441C19.8279 19.2367 19.7466 19.1953 19.6882 19.1288C19.6313 19.0645 19.5995 18.9795 19.601 18.8952V8.64125C19.601 8.59838 19.6091 8.55551 19.6261 8.51485C19.6424 8.4742 19.6668 8.43798 19.6964 8.40694C19.7274 8.37516 19.7644 8.35077 19.8043 8.33377C19.8449 8.31677 19.8885 8.3079 19.9314 8.30864H20.655C20.6986 8.3079 20.743 8.31677 20.7836 8.33377C20.8235 8.35077 20.8605 8.3759 20.8908 8.40768C20.9211 8.43872 20.9455 8.47568 20.9617 8.51633C20.978 8.55625 20.9861 8.59911 20.9854 8.64125V12.4906H22.5087C22.6011 12.4906 22.6898 12.5276 22.7549 12.5949C22.8184 12.6599 22.8547 12.7479 22.8547 12.8402C22.8547 12.8402 22.8547 13.4515 22.8547 13.4493C22.8554 13.5409 22.8229 13.6296 22.7623 13.6976C22.7009 13.7671 22.6159 13.81 22.5243 13.8181L22.5161 13.8189H20.9854V18.8834ZM21.2589 22.6382C21.2537 22.7209 21.219 22.7986 21.1613 22.8569C21.1029 22.9168 21.0253 22.953 20.9425 22.9582L20.9366 22.9589H12.1654C11.5822 22.9589 11.1269 22.4674 11.1269 21.848V17.9661C11.1269 17.9225 11.135 17.8796 11.1513 17.8397C11.1675 17.7991 11.1919 17.7621 11.2222 17.7311C11.2533 17.7 11.2895 17.6749 11.3301 17.6579C11.3708 17.6416 11.4137 17.6328 11.4573 17.6328H12.1735L12.1824 17.6335C12.2651 17.6416 12.342 17.6808 12.3974 17.7444C12.4514 17.8065 12.481 17.887 12.4795 17.9661V21.6633H20.9433L20.9573 21.6655C21.0334 21.6773 21.1044 21.7135 21.1591 21.7697C21.2123 21.8251 21.247 21.8961 21.2574 21.9729L21.2596 21.9855V22.6315L21.2589 22.6382ZM18.1013 16.1065C18.0976 16.1885 18.0658 16.2661 18.0126 16.3267C17.9579 16.3896 17.884 16.4302 17.8034 16.4442L17.7879 16.4465H11.0057C10.4447 16.4465 9.96718 15.9372 9.96718 15.32V8.95612C9.96644 8.87481 9.99526 8.79646 10.0477 8.73511C10.1024 8.67155 10.1793 8.63238 10.2614 8.62425L10.271 8.62277C10.271 8.62277 17.1922 8.62277 17.1885 8.62277C17.2757 8.62129 17.3614 8.65307 17.4265 8.71368C17.49 8.77207 17.53 8.85338 17.5374 8.94059L17.5381 8.94798V9.57403V9.57994C17.5314 9.66642 17.4952 9.74846 17.4354 9.80981C17.374 9.87264 17.2927 9.91033 17.2055 9.91699L17.1988 9.91772L11.3353 9.91699V15.1352H17.7879L17.8034 15.1382C17.884 15.1515 17.9579 15.1922 18.0126 15.255C18.0658 15.3156 18.0976 15.3939 18.1013 15.4752L18.102 15.4804V16.1013L18.1013 16.1065Z" fill="black"/>
<path fill-rule="evenodd" clip-rule="evenodd" d="M35.224 13.991L34.7805 14.467C34.7251 14.538 34.6409 14.5831 34.5522 14.5905C34.459 14.5979 34.3637 14.5624 34.2949 14.4922L29.7412 9.48234C29.7412 9.48234 25.194 14.484 25.197 14.4811C25.1415 14.5528 25.0706 14.5853 24.9959 14.5912C24.9109 14.5979 24.8104 14.5624 24.7269 14.4781L24.2502 13.9881L24.242 13.9777C24.1844 13.8972 24.1622 13.7937 24.174 13.7094C24.1844 13.634 24.2191 13.5727 24.2642 13.535L28.9606 8.35443L28.9614 8.35295C29.1942 8.1046 29.4729 7.98486 29.7471 7.98486C30.0228 7.98486 30.2985 8.10534 30.5224 8.35517L35.21 13.5239C35.3408 13.6222 35.3696 13.8403 35.224 13.991ZM34.9831 22.5812C34.9897 22.6086 34.9905 22.6411 34.9823 22.678C34.9698 22.7342 34.8877 22.8495 34.8715 22.8643C34.8101 22.9212 34.7325 22.9537 34.6505 22.9589H34.6453H25.7114H25.7092C25.5688 22.956 25.4305 22.9242 25.3019 22.8658C25.1733 22.8081 25.058 22.7246 24.9612 22.6197C24.8659 22.5162 24.7905 22.3935 24.7417 22.2597C24.6929 22.1281 24.6692 21.987 24.6737 21.8458C24.6737 21.8458 24.6737 18.4436 24.6737 18.4458C24.6729 18.3586 24.704 18.2743 24.7609 18.21C24.8193 18.1435 24.9006 18.1028 24.9871 18.0947L24.9952 18.094H25.7218L25.7306 18.0947C25.8171 18.1028 25.8984 18.1442 25.9561 18.2107C26.013 18.275 26.044 18.36 26.0426 18.4436V21.664H34.649L34.6615 21.6654C34.7369 21.6758 34.8079 21.709 34.8648 21.7615C34.9202 21.8125 34.9602 21.8798 34.9779 21.9544L34.9831 21.9759V22.5812ZM30.8587 17.0577L30.8602 19.8642L30.858 19.879C30.8447 19.9551 30.807 20.0246 30.7508 20.0763C30.6939 20.1288 30.6207 20.1598 30.5446 20.165L30.5379 20.1657H29.7981L29.7892 20.165C29.7101 20.1576 29.6362 20.1192 29.5845 20.0571C29.5342 19.9987 29.5076 19.9233 29.5098 19.8457V17.0577H23.6855L23.6699 17.0555C23.5931 17.0422 23.5236 17.003 23.4719 16.9431C23.4216 16.8855 23.3913 16.8123 23.3876 16.7347L23.3869 16.7295V16.0968C23.3861 16.0148 23.4157 15.9357 23.4689 15.8751C23.5243 15.8108 23.6012 15.7716 23.684 15.7642L23.6929 15.7635H35.7784C35.8663 15.7627 35.9528 15.799 36.0149 15.8618C36.0755 15.9239 36.1102 16.0096 36.1102 16.0968V16.731V16.7376C36.1043 16.8204 36.0689 16.898 36.0119 16.9564C35.9528 17.0163 35.8752 17.0518 35.7924 17.0577H35.7865H30.8587Z" fill="black"/>
<path fill-rule="evenodd" clip-rule="evenodd" d="M49.3207 21.8465V21.8479C49.3229 22.1362 49.2142 22.4134 49.0198 22.6211C48.8225 22.8303 48.5535 22.9515 48.2674 22.9589H40.5028C40.3602 22.9589 40.219 22.9293 40.0875 22.8724C39.9566 22.8155 39.8384 22.7327 39.7401 22.6277C39.6418 22.5235 39.5649 22.4008 39.5139 22.2656C39.4636 22.1318 39.44 21.9891 39.4444 21.8457V17.3259L39.4459 17.3126C39.457 17.2365 39.4917 17.1656 39.5449 17.1109C39.5996 17.0554 39.6698 17.0192 39.746 17.0074L39.76 17.0059H49.0051L49.0191 17.0074C49.0952 17.0192 49.1655 17.0554 49.2202 17.1109C49.2734 17.1656 49.3081 17.2365 49.3192 17.3134L49.3207 17.3259V21.8465ZM48.1055 21.8479V18.1131H40.6344V21.8479H48.1055ZM49.3207 16.1064C49.3162 16.1884 49.2845 16.266 49.2312 16.3266C49.1765 16.3895 49.1026 16.4301 49.0221 16.4442L49.0073 16.4464H48.26H48.2534C48.1669 16.4397 48.0848 16.402 48.0235 16.3392C47.9636 16.2771 47.9274 16.1958 47.9215 16.1086L47.9208 16.1027V8.63378L47.9215 8.62638C47.9289 8.53843 47.9688 8.45712 48.0324 8.39873C48.0974 8.33886 48.1832 8.30634 48.2667 8.30856H48.9977H49.0043C49.0871 8.31447 49.1647 8.35069 49.2231 8.41056C49.28 8.46895 49.3148 8.54656 49.3207 8.62934V8.63525V11.5644H50.8566L50.8692 11.5666C50.9445 11.577 51.0155 11.6103 51.0724 11.6627C51.1278 11.7137 51.167 11.781 51.1855 11.8549L51.1907 11.8763V12.5408L51.1885 12.5556C51.1759 12.6369 51.1352 12.7116 51.0754 12.767C51.0133 12.8232 50.9342 12.8557 50.8477 12.8601H49.3207V16.1012V16.1064ZM45.9384 12.9059C45.9384 14.855 44.3072 16.2764 41.9996 16.2764C39.692 16.2764 38.077 14.8565 38.0763 12.9067C38.0704 12.4093 38.1827 11.9177 38.403 11.4743C38.5471 11.1853 38.7341 10.9229 38.9573 10.6945H37.7474L37.7326 10.6923C37.652 10.6789 37.5774 10.6383 37.5227 10.5755C37.4687 10.5149 37.4369 10.4365 37.4325 10.3545L37.4318 10.35V9.72769L37.4325 9.72251C37.4369 9.64047 37.4687 9.56212 37.5227 9.50151C37.5774 9.43869 37.652 9.39804 37.7326 9.38473L37.7474 9.38251H41.2989V7.99221L41.3041 7.97078C41.3218 7.89686 41.361 7.83034 41.4164 7.7786C41.4726 7.72686 41.5428 7.69286 41.6175 7.68251L41.6308 7.6803H42.3825L42.395 7.68178C42.4719 7.69286 42.5436 7.72908 42.599 7.78599C42.6522 7.84069 42.6877 7.91238 42.6981 7.98925L42.6995 8.00182V9.38251H46.2614L46.2695 9.38325C46.3568 9.39065 46.4381 9.43204 46.4965 9.49856C46.5534 9.5636 46.5852 9.64786 46.5837 9.73286C46.5837 9.73286 46.5837 10.3449 46.5837 10.3419C46.5852 10.4291 46.5534 10.5141 46.4965 10.5792C46.4381 10.6457 46.3568 10.6863 46.2695 10.6937L46.2614 10.6945L45.05 10.6952C45.2717 10.9251 45.4587 11.1897 45.6028 11.4794C45.8224 11.9214 45.9377 12.41 45.9384 12.9059ZM44.7225 12.9059C44.7225 11.6649 43.6589 10.6583 41.9996 10.6583C40.3558 10.6583 39.2604 11.6664 39.2604 12.9059C39.2604 14.1625 40.3558 15.1706 41.9996 15.1706C43.6552 15.1706 44.7225 14.1625 44.7225 12.9059Z" fill="black"/>
<path fill-rule="evenodd" clip-rule="evenodd" d="M63.6805 22.8104C63.6739 22.8207 63.6665 22.8311 63.6584 22.8407C63.6088 22.8998 63.5408 22.9405 63.4662 22.9553L63.4477 22.9589H54.6469C54.505 22.9575 54.3645 22.9264 54.2344 22.8695C54.1044 22.8119 53.9876 22.7291 53.8893 22.6249C53.7917 22.5214 53.7148 22.3987 53.6631 22.2649C53.6128 22.1319 53.5877 21.9899 53.5899 21.8473L53.5907 17.9602V17.9543C53.5958 17.8715 53.6306 17.7939 53.6882 17.7348C53.7466 17.6749 53.8242 17.6387 53.907 17.6335L53.9137 17.6328H54.6528L54.6609 17.6335C54.7444 17.6416 54.8213 17.6808 54.8767 17.7444C54.93 17.805 54.9595 17.8848 54.958 17.9661V21.664H63.4514L63.4736 21.6699C63.5438 21.6876 63.6066 21.7268 63.6547 21.7823C63.7005 21.8369 63.7308 21.9042 63.7389 21.9759L63.7404 21.987V22.8104H63.6805ZM63.362 22.7742L63.3605 22.8104H63.3708V22.7742H63.362ZM59.4579 14.7273C58.7697 15.9209 57.528 16.6786 56.0113 16.6786C53.6742 16.6786 51.9949 14.9142 51.9949 12.5261C51.9949 10.1372 53.669 8.37442 56.0143 8.37442C57.528 8.37442 58.7697 9.12834 59.4579 10.325H62.0648V8.6309V8.62425C62.0707 8.54147 62.1054 8.46386 62.1623 8.40547C62.2207 8.3456 62.2991 8.30938 62.3811 8.30421L62.3878 8.30347H63.1417L63.1483 8.30421C63.2304 8.30938 63.3087 8.3456 63.3671 8.40547C63.424 8.46386 63.4588 8.54221 63.4647 8.62425V8.6309V18.8945V18.8996C63.4603 18.9817 63.4285 19.0593 63.3753 19.1199C63.3206 19.1827 63.2467 19.2241 63.1661 19.2374L63.1506 19.2396H62.3789L62.3634 19.2374C62.2828 19.2241 62.2089 19.1827 62.1542 19.1199C62.101 19.0593 62.0692 18.9817 62.0648 18.8996V18.8945V14.7273H59.4579ZM59.8164 12.5261C59.8223 12.8994 59.7787 13.2719 59.6877 13.6341H62.2496V11.4359H59.6877C59.7794 11.7914 59.823 12.158 59.8164 12.5261ZM58.8015 12.5261C58.8015 10.7906 57.661 9.51786 56.0113 9.51342C54.3194 9.51342 53.2085 10.7855 53.2085 12.5217C53.2085 14.2579 54.3194 15.5469 56.0113 15.5469C57.661 15.5469 58.8015 14.2616 58.8015 12.5261Z" fill="black"/>
<path fill-rule="evenodd" clip-rule="evenodd" d="M72.9669 22.624L72.9684 22.6225C72.9691 22.6662 72.9617 22.7098 72.9455 22.7504C72.93 22.7918 72.9056 22.8295 72.8753 22.8613C72.8442 22.8931 72.8073 22.9189 72.7666 22.9359C72.726 22.9537 72.6816 22.9626 72.638 22.9618H71.9447C71.9417 22.9618 71.9388 22.9618 71.9358 22.9618C71.8937 22.964 71.8508 22.9581 71.8102 22.9448C71.7666 22.9293 71.7274 22.9056 71.6934 22.8746C71.6594 22.8436 71.6328 22.8066 71.6136 22.7645C71.5951 22.7231 71.5855 22.6787 71.584 22.6314V17.6889H66.2083L66.1906 17.6852C66.1107 17.6696 66.0383 17.6253 65.9866 17.5595C65.9378 17.4967 65.9112 17.4183 65.9127 17.3378V16.7258C65.9112 16.6452 65.9378 16.5669 65.9866 16.504C66.0383 16.4382 66.1107 16.3939 66.1906 16.3784L66.2083 16.3747H78.316L78.3241 16.3754C78.4106 16.3828 78.4927 16.4242 78.551 16.4907C78.6087 16.5558 78.6397 16.6408 78.6383 16.725C78.6383 16.725 78.6383 17.3363 78.6383 17.3326C78.6397 17.4198 78.6087 17.5048 78.551 17.5699C78.4927 17.6364 78.4106 17.6778 78.3241 17.6852L78.316 17.6859H72.9669V22.624ZM72.89 22.7024L72.7866 22.8059C72.7851 22.8088 72.7836 22.8103 72.7836 22.8103L72.89 22.7024ZM77.347 15.5106C77.3359 15.5875 77.3012 15.6577 77.2487 15.7124C77.194 15.7686 77.123 15.8048 77.0454 15.8166L77.0321 15.8181H76.2708L76.2479 15.8122C76.1792 15.7945 76.1171 15.756 76.069 15.7021C76.021 15.6474 75.9907 15.5801 75.9818 15.5084L75.9803 15.4973V9.91764H67.3687L67.354 9.91468C67.2734 9.90138 67.1987 9.85998 67.1448 9.7979C67.0908 9.73655 67.0598 9.65894 67.0554 9.5769L67.0546 9.57246V8.95012L67.0554 8.9442C67.0605 8.86142 67.0953 8.78381 67.1522 8.72468C67.2113 8.66481 67.2889 8.62933 67.3717 8.62342L67.3776 8.62268H77.0255L77.0314 8.62342C77.1142 8.62933 77.1925 8.66481 77.2509 8.72542C77.3086 8.78381 77.3433 8.86216 77.3485 8.94568V8.95085V15.4981L77.347 15.5106Z" fill="black"/>
<path fill-rule="evenodd" clip-rule="evenodd" d="M92.0476 16.3141C92.0853 16.3747 92.103 16.4472 92.0963 16.5196C92.0912 16.5928 92.0601 16.6615 92.0128 16.7155L91.998 16.731L91.3772 17.1671C91.3432 17.1959 91.3047 17.2159 91.2611 17.2262C91.2131 17.238 91.1606 17.2365 91.1126 17.2218C91.066 17.207 91.0231 17.1804 90.9869 17.1412L90.9854 17.1397C90.9625 17.1131 90.944 17.0828 90.9322 17.0518L86.4435 9.78685C86.4435 9.78685 81.9703 17.0555 81.971 17.0532C81.9562 17.088 81.9355 17.119 81.9097 17.1456C81.8764 17.1789 81.835 17.2033 81.7921 17.2173C81.747 17.2314 81.6975 17.2343 81.651 17.2247C81.6073 17.2159 81.566 17.1974 81.532 17.1708L80.9074 16.7325L80.8941 16.7177C80.8446 16.6637 80.8143 16.595 80.8076 16.5211C80.801 16.4472 80.8194 16.3732 80.8571 16.3141L85.6437 8.52664L85.6452 8.52442C85.8248 8.24872 86.1419 8.10681 86.456 8.10681C86.7739 8.10681 87.0836 8.25168 87.2462 8.52959L92.0476 16.3141ZM92.8163 21.8487C92.8163 21.9367 92.7815 22.0209 92.7209 22.083C92.6581 22.1473 92.5738 22.1828 92.4859 22.1828L80.3937 22.1821L80.3848 22.1813C80.3006 22.1732 80.2237 22.1333 80.169 22.069C80.1165 22.0076 80.087 21.9271 80.0884 21.8487C80.0884 21.8487 80.0884 21.2375 80.0884 21.2404C80.087 21.1591 80.1136 21.08 80.1631 21.0165C80.2141 20.9507 80.2865 20.9063 80.3663 20.8908L80.3841 20.8871H85.7642V16.7251C85.7642 16.6327 85.7997 16.5447 85.8633 16.4797C85.9276 16.4124 86.017 16.3747 86.1101 16.3747H86.8263L86.8345 16.3755C86.921 16.3829 87.003 16.4242 87.0614 16.4908C87.119 16.5558 87.1501 16.6408 87.1486 16.7251V20.8871H92.494L92.5021 20.8879C92.5886 20.8952 92.6692 20.9359 92.7283 21.0024C92.7852 21.0667 92.8163 21.1502 92.8163 21.2375V21.8487Z" fill="black"/>
<path fill-rule="evenodd" clip-rule="evenodd" d="M98.5763 1.0636C98.9429 1.0636 99.3065 1.13751 99.6458 1.28164C99.9843 1.42503 100.292 1.63642 100.551 1.90177C100.81 2.16712 101.015 2.48199 101.155 2.82864C101.295 3.17529 101.367 3.54634 101.367 3.92108C101.367 4.48503 101.204 5.03716 100.898 5.50651C100.592 5.9766 100.157 6.34321 99.6465 6.56051C99.509 6.6189 99.3679 6.66547 99.2245 6.70021V25.6885H100.429C100.603 25.6885 100.769 25.7594 100.89 25.8843C101.011 26.0085 101.077 26.1763 101.077 26.35V30.1506C101.077 30.3243 101.01 30.4913 100.889 30.6155C100.768 30.7397 100.603 30.8106 100.429 30.8114H96.7225C96.5496 30.8106 96.384 30.7397 96.2628 30.6155C96.1416 30.4913 96.0743 30.3243 96.0743 30.1506V28.9111H6.03717C5.95808 29.186 5.83835 29.4492 5.68165 29.6909C5.37565 30.1602 4.94104 30.5268 4.43104 30.7434C3.92104 30.9599 3.36004 31.0169 2.81826 30.906C2.27648 30.7959 1.77978 30.5231 1.39026 30.124C1.00074 29.7241 0.73613 29.2156 0.628956 28.6627C0.521782 28.1099 0.577217 27.537 0.78713 27.0159C0.997782 26.4949 1.35404 26.0484 1.8123 25.7343C2.08874 25.5451 2.394 25.4091 2.71404 25.3307V6.32547H1.51074C1.33704 6.32547 1.17148 6.25525 1.05026 6.13108C0.929043 6.0069 0.861043 5.83912 0.861043 5.66543V1.86334C0.861043 1.68964 0.929043 1.52186 1.05026 1.39769C1.17148 1.27351 1.33704 1.20256 1.51074 1.20256H5.216C5.38895 1.20329 5.55452 1.27425 5.67574 1.39842C5.79695 1.5226 5.86421 1.68964 5.86421 1.86334V3.10286H95.9036C95.9309 3.01047 95.962 2.91956 95.9982 2.82938C96.2088 2.30829 96.5658 1.86112 97.0241 1.54699C97.4831 1.23212 98.0234 1.0636 98.5763 1.0636ZM95.8304 4.42443H5.86421V5.66543C5.86421 5.83838 5.79695 6.00616 5.67574 6.13034C5.55452 6.25451 5.38969 6.32547 5.216 6.32547H4.01122V25.3307C4.50865 25.4527 4.96839 25.7136 5.335 26.0906C5.73635 26.5023 6.00169 27.0256 6.10369 27.5895H96.0743V26.35C96.0743 26.1763 96.1416 26.0085 96.262 25.8843C96.3833 25.7594 96.5488 25.6885 96.7225 25.6885H97.9273V6.70021C97.4262 6.57751 96.9672 6.31438 96.6028 5.94038C96.2133 5.54051 95.9479 5.03199 95.8407 4.47838C95.8371 4.46064 95.8341 4.44216 95.8304 4.42443ZM99.4041 2.64164C99.1587 2.47386 98.8704 2.38442 98.5763 2.38442C98.1823 2.38516 97.8031 2.54629 97.523 2.83382C97.2429 3.12134 97.0847 3.51234 97.084 3.92108C97.084 4.22634 97.1726 4.52347 97.3367 4.77625C97.5016 5.02903 97.7351 5.22564 98.0071 5.34095C98.2799 5.45699 98.5792 5.48729 98.8675 5.42816C99.1565 5.36903 99.4218 5.22343 99.631 5.00908C99.8402 4.79399 99.9828 4.51977 100.041 4.22116C100.099 3.92182 100.069 3.61212 99.9555 3.33125C99.8416 3.04964 99.6495 2.81016 99.4041 2.64164ZM4.18935 26.8304C3.94395 26.6626 3.65643 26.5732 3.363 26.5732C2.96978 26.5739 2.59135 26.7343 2.31122 27.0211C2.03183 27.3086 1.87365 27.6989 1.87365 28.1069C1.87365 28.4114 1.96161 28.7086 2.12643 28.9606C2.29052 29.2126 2.52335 29.4085 2.79535 29.5246C3.06735 29.6399 3.36595 29.6694 3.65348 29.611C3.94174 29.5519 4.20709 29.4063 4.41626 29.1927C4.62469 28.9783 4.76735 28.7049 4.825 28.4063C4.88265 28.1076 4.85309 27.7987 4.73926 27.5178C4.62617 27.2369 4.434 26.9982 4.18935 26.8304ZM2.15896 5.00982V2.52412H4.56704V5.00982H2.15896ZM97.3715 27.01V29.4898H99.7803V27.01H97.3715Z" fill="black"/>
</svg>
