<svg width="138" height="42" viewBox="0 0 138 42" fill="none" xmlns="http://www.w3.org/2000/svg">
<g clip-path="url(#clip0_191_315)">
<path fill-rule="evenodd" clip-rule="evenodd" d="M85.4378 10.5769H84.4177L84.4092 10.5775C84.2963 10.5852 84.191 10.6347 84.1127 10.715C84.0325 10.7973 83.9881 10.9055 83.9807 11.0195V13.3123H80.4538C79.5217 11.6911 77.8366 10.6725 75.795 10.6725C72.6177 10.6725 70.3571 13.0755 70.3571 16.2895C70.3571 19.5035 72.6243 21.9079 75.7911 21.9079C77.8367 21.9079 79.5216 20.884 80.4536 19.2681H83.9807L83.9803 24.8996C83.9864 25.0147 84.0255 25.1239 84.102 25.2114C84.1815 25.3023 84.2878 25.3535 84.4055 25.3732H85.4501C85.5677 25.3535 85.674 25.3023 85.7535 25.2114C85.8264 25.128 85.869 25.0227 85.8748 24.9129V11.0195C85.8674 10.9055 85.823 10.7973 85.7428 10.715C85.6645 10.6347 85.5592 10.5852 85.4463 10.5775L85.4378 10.5769ZM81.0785 15.0648C81.1588 15.4675 81.1957 15.8784 81.1884 16.2899C81.1946 16.7093 81.1572 17.1279 81.0769 17.5386H83.9807V15.0648H81.0785ZM72.2766 16.2774C72.2766 15.1561 72.6349 14.2017 73.2488 13.5303C73.8608 12.8611 74.7405 12.4575 75.8188 12.4574C77.8931 12.4626 79.3433 14.0531 79.3433 16.2828C79.3433 18.5156 77.8917 20.1204 75.8191 20.1204C74.7417 20.1204 73.8619 19.7118 73.2495 19.0367C72.635 18.3594 72.2766 17.3989 72.2766 16.2774Z" fill="white"/>
<path d="M73.9808 23.1924L73.9922 23.1934C74.1059 23.2038 74.21 23.2581 74.284 23.3432C74.3571 23.4272 74.3958 23.5352 74.394 23.6454V28.6456H85.8845L85.9156 28.6537C86.0109 28.6786 86.0956 28.7322 86.1592 28.8063C86.2227 28.8804 86.2624 28.9717 86.2739 29.068L86.2757 29.0827L86.2728 29.9581C86.2691 30.0435 86.2422 30.1264 86.1949 30.1974C86.1856 30.2115 86.1754 30.225 86.1645 30.2381C86.0982 30.3172 86.007 30.3724 85.9047 30.3931L85.8801 30.3981H73.9717C73.7798 30.3958 73.5904 30.3544 73.4146 30.2767C73.2388 30.199 73.0801 30.0865 72.9476 29.946C72.8152 29.8056 72.7114 29.64 72.6422 29.4589C72.5732 29.2786 72.5396 29.0864 72.5432 28.8931V23.6349L72.5438 23.6268C72.551 23.5161 72.5971 23.4107 72.6753 23.3305C72.7535 23.2502 72.8588 23.2007 72.9718 23.193L72.9803 23.1924H73.9808Z" fill="white"/>
<path d="M28.4311 11.0282V16.2348H30.4916C30.6178 16.2348 30.7374 16.2863 30.8247 16.3758C30.9117 16.4651 30.9595 16.5848 30.9595 16.7084L30.9595 17.5582C30.9595 17.6818 30.9117 17.8015 30.8247 17.8908C30.7375 17.9803 30.6178 18.0318 30.4916 18.0318H28.4311V24.8877C28.4353 25.0049 28.3959 25.1203 28.3193 25.2105C28.2409 25.3028 28.1292 25.3616 28.0072 25.3723L26.9831 25.3722C26.8638 25.3618 26.7542 25.3054 26.6759 25.2165C26.5983 25.1283 26.5568 25.0146 26.558 24.8981V11.0276C26.5575 10.9107 26.6035 10.7953 26.6859 10.7108C26.7683 10.6262 26.8852 10.5764 27.0043 10.5769H27.9848C28.104 10.5764 28.2208 10.6262 28.3033 10.7108C28.3856 10.7953 28.4317 10.9113 28.4311 11.0282Z" fill="white"/>
<path d="M23.6159 11.1247C23.5293 11.0449 23.4153 11.0007 23.2966 11.0025C21.435 11.0377 19.5713 11.0259 17.708 11.0142C16.7815 11.0084 15.8548 11.0025 14.9289 11.0025C14.1379 11.0025 13.5237 11.7202 13.5237 12.5265V20.0633C13.5237 20.8696 14.1379 21.5873 14.9289 21.5873H24.1048C24.2224 21.5676 24.3287 21.5164 24.4083 21.4255C24.4812 21.3422 24.5237 21.2368 24.5295 21.127L24.5299 20.2868L24.5292 20.2736C24.5234 20.1638 24.4812 20.0584 24.4083 19.9751C24.3287 19.8842 24.2224 19.833 24.1048 19.8133H15.3745V12.7537H23.3079C23.4289 12.7449 23.5425 12.6955 23.6276 12.6082C23.7096 12.524 23.7583 12.4135 23.7663 12.2972L23.7668 12.2887V11.4427L23.766 11.4323C23.7562 11.3152 23.7032 11.2051 23.6159 11.1247Z" fill="white"/>
<path d="M15.54 23.1924H16.509L16.5204 23.1934C16.634 23.2038 16.7382 23.2581 16.8122 23.3432C16.8853 23.4272 16.924 23.5352 16.9222 23.6454V28.6456H28.3742L28.3925 28.6483C28.4971 28.6639 28.5929 28.7138 28.6659 28.7892C28.7388 28.8645 28.785 28.9611 28.799 29.0641L28.8012 29.0808V29.9555L28.8007 29.9636C28.7935 30.0744 28.7473 30.1798 28.6692 30.26C28.5909 30.3403 28.4857 30.3898 28.3727 30.3975L28.3642 30.3981H16.4976C15.6853 30.3981 15.0924 29.7058 15.0924 28.8956V23.6431C15.0924 23.5256 15.1386 23.4103 15.2217 23.3256C15.3048 23.2409 15.4201 23.1918 15.54 23.1924Z" fill="white"/>
<path d="M41.3344 10.6412L47.6755 17.6326C47.8858 17.7854 47.8617 18.0938 47.6932 18.2671L47.0937 18.9099C46.9362 19.1102 46.6224 19.1319 46.4411 18.9466L46.4347 18.94L40.2766 12.1656L34.1251 18.9325C33.9571 19.1435 33.6674 19.1008 33.4932 18.9247L33.4917 18.9232L32.8478 18.2612L32.8373 18.2468C32.7117 18.0741 32.6943 17.7956 32.8683 17.6469L39.2223 10.6374C39.5232 10.3154 39.897 10.1389 40.2845 10.1389C40.6724 10.1389 41.0429 10.3165 41.3344 10.6412Z" fill="white"/>
<path d="M41.7882 22.4143V26.0358L41.7873 26.2318C41.7701 26.3334 41.7199 26.4272 41.6434 26.4977C41.5668 26.5683 41.4683 26.6113 41.3635 26.6184L41.355 26.619H40.354L40.3422 26.6179C40.2335 26.6075 40.1343 26.5547 40.0645 26.4726C39.9962 26.3924 39.9609 26.2899 39.9637 26.1857V22.4143H32.0833L32.062 22.4106C31.9576 22.3924 31.8636 22.3385 31.7947 22.2594C31.726 22.1804 31.6862 22.0807 31.6806 21.9769L31.6799 21.9636V21.1117C31.6805 20.9954 31.7269 20.8802 31.8092 20.7963C31.8919 20.7121 32.0086 20.6626 32.1275 20.6631L32.1286 20.6631L48.4465 20.6631C48.5654 20.6626 48.6821 20.7121 48.7648 20.7963C48.8476 20.8807 48.8941 20.9968 48.8941 21.1138V21.9724C48.886 22.0866 48.8414 22.1946 48.7607 22.2768C48.6793 22.3598 48.5709 22.4065 48.4556 22.4143H41.7882Z" fill="white"/>
<path d="M35.1562 23.9738C35.2332 24.0619 35.2744 24.1752 35.2731 24.2912V28.6457H46.9169L46.9342 28.6481C47.0372 28.6626 47.1327 28.7083 47.2087 28.7783C47.2938 28.8568 47.3419 28.9571 47.3687 29.0679L47.3684 29.9857C47.3516 30.0944 47.2988 30.1951 47.2175 30.2705C47.136 30.346 47.0307 30.3914 46.9189 30.3978L46.9118 30.3982H34.8222C34.6318 30.3942 34.4442 30.3514 34.2705 30.2725C34.0967 30.1936 33.9404 30.0803 33.8104 29.9395C33.6804 29.7987 33.5792 29.6332 33.5125 29.4527C33.4463 29.2735 33.4152 29.083 33.421 28.8918V24.2912C33.4197 24.1752 33.4601 24.0619 33.5372 23.9738C33.6187 23.8806 33.7318 23.8276 33.8541 23.816H34.8392C34.9616 23.8276 35.0746 23.8806 35.1562 23.9738Z" fill="white"/>
<path fill-rule="evenodd" clip-rule="evenodd" d="M60.9971 13.8054C61.7516 14.5841 62.1905 15.6125 62.1908 16.7967C62.1908 19.4764 59.9258 21.357 56.8618 21.357C53.797 21.357 51.5547 19.4764 51.5538 16.7988C51.5538 15.6135 51.997 14.5845 52.7565 13.8055L51.1089 13.8055L51.0891 13.8022C50.9783 13.7843 50.878 13.7281 50.8045 13.6446C50.731 13.5612 50.6884 13.4555 50.6825 13.3453L50.6818 13.3319L50.6821 12.4901C50.6881 12.38 50.731 12.2743 50.8045 12.1909C50.878 12.1074 50.9783 12.0512 51.0891 12.0332L51.1089 12.03L55.9135 12.03V10.1494L55.9204 10.1205C55.9444 10.0211 55.9969 9.93046 56.0723 9.86054C56.1478 9.79054 56.2428 9.74462 56.3453 9.72967L56.3632 9.72705H57.3798L57.3974 9.72957C57.5025 9.74461 57.5989 9.79427 57.6725 9.8697C57.7459 9.94503 57.7926 10.0419 57.8066 10.1454L57.8089 10.1622V12.03L62.6341 12.03L62.6539 12.0332C62.7648 12.0511 62.865 12.1073 62.9386 12.1908C63.012 12.2742 63.0546 12.3799 63.0606 12.4901L63.0613 12.5036L63.0609 13.3453C63.055 13.4555 63.012 13.5612 62.9386 13.6446C62.865 13.7281 62.7648 13.7843 62.6539 13.8022L62.6341 13.8054L60.9971 13.8054ZM56.8618 14.0062C54.7362 14.0062 53.4059 15.2954 53.4059 16.7973C53.4059 18.3232 54.7375 19.6113 56.8618 19.6113C58.9989 19.6113 60.2953 18.3257 60.2953 16.7973C60.2953 15.2901 59.0053 14.0062 56.8618 14.0062Z" fill="white"/>
<path d="M65.0238 10.6992C65.1105 10.6194 65.2244 10.5751 65.3431 10.577L66.3385 10.5775C66.4515 10.5853 66.5567 10.6348 66.635 10.7151C66.7152 10.7974 66.7597 10.9055 66.7671 11.0195V14.9823H68.8449L68.8622 14.9848C68.9652 14.9992 69.0608 15.045 69.1367 15.115C69.2127 15.185 69.2656 15.2759 69.2897 15.3756L69.2967 15.4046V16.3035L69.2938 16.3225C69.2767 16.4321 69.2232 16.5335 69.1407 16.609C69.0581 16.6846 68.9515 16.7295 68.8388 16.7346L68.8275 16.7351L66.7671 16.7349V21.1271C66.7612 21.2369 66.7187 21.3423 66.6458 21.4256C66.5662 21.5165 66.4599 21.5676 66.3423 21.5874L65.3228 21.5867C65.2045 21.5782 65.0943 21.5262 65.0121 21.4419C64.9301 21.3577 64.8815 21.2472 64.8735 21.1309L64.8729 11.0172C64.8831 10.8959 64.9336 10.7823 65.0238 10.6992Z" fill="white"/>
<path fill-rule="evenodd" clip-rule="evenodd" d="M53.8319 22.3439H66.3399C66.4506 22.3603 66.5518 22.4054 66.6308 22.4864C66.7087 22.5663 66.7516 22.6675 66.767 22.777V28.8945C66.7702 29.2833 66.6245 29.6591 66.3595 29.9406C66.0945 30.2222 65.7245 30.3879 65.3382 30.3982L54.8297 30.3981C54.4448 30.3878 54.0806 30.2227 53.8151 29.9407C53.5501 29.6591 53.4044 29.2834 53.4075 28.8945L53.4048 22.777C53.4202 22.6675 53.4631 22.5663 53.5411 22.4864C53.62 22.4054 53.7213 22.3603 53.8319 22.3439ZM55.2648 24.0924V28.6456H64.8729V24.0924H55.2648Z" fill="white"/>
<path d="M91.1972 11.0026H104.25L104.258 11.0031C104.371 11.0109 104.477 11.0604 104.555 11.1407C104.633 11.2209 104.679 11.3263 104.686 11.437L104.687 11.4451V20.3044L104.684 20.3218C104.67 20.4244 104.623 20.5204 104.551 20.5951C104.478 20.6699 104.382 20.7194 104.278 20.7349L104.26 20.7376H103.229L103.198 20.7296C103.103 20.7051 103.019 20.6522 102.955 20.5788C102.891 20.5055 102.851 20.415 102.838 20.3193L102.836 20.3032V12.7537H91.1849L91.1643 12.7503C91.054 12.7318 90.9544 12.6753 90.8814 12.5919C90.8085 12.5086 90.7663 12.4032 90.7605 12.2934L90.7598 12.2802L90.7601 11.4451L90.7606 11.437C90.7678 11.3263 90.814 11.2209 90.8921 11.1407C90.9704 11.0604 91.0757 11.0109 91.1887 11.0031L91.1972 11.0026Z" fill="white"/>
<path d="M89.6153 23.2683L96.888 23.2663L96.8879 29.9516L96.8881 29.9571C96.8908 30.0802 96.9436 30.1998 97.0353 30.2842C97.124 30.3658 97.2434 30.4092 97.3646 30.4022H98.3135C98.435 30.4028 98.5516 30.3525 98.635 30.2658C98.7183 30.1792 98.7634 30.0616 98.7611 29.9426L98.7589 23.2663H106.026C106.145 23.2429 106.25 23.1882 106.326 23.0913C106.393 23.0051 106.428 22.8983 106.426 22.7897V21.9647C106.428 21.8561 106.393 21.7493 106.326 21.6631C106.25 21.5662 106.145 21.5115 106.026 21.4882L89.6153 21.4901C89.4966 21.5135 89.3909 21.5682 89.3152 21.6651C89.2478 21.7513 89.2129 21.8581 89.2151 21.9667V22.7917C89.2129 22.9003 89.2478 23.0071 89.3152 23.0933C89.3909 23.1902 89.4966 23.2449 89.6153 23.2683Z" fill="white"/>
<path d="M117.009 10.3046C117.418 10.3046 117.849 10.484 118.078 10.8777L124.573 21.407C124.625 21.4907 124.649 21.5891 124.64 21.687C124.632 21.7856 124.591 21.8794 124.524 21.9531L124.506 21.9734L123.667 22.5626C123.622 22.6008 123.568 22.6284 123.51 22.6424C123.444 22.6585 123.374 22.6563 123.309 22.6362C123.244 22.6161 123.186 22.579 123.141 22.5293C123.107 22.4926 123.081 22.4501 123.064 22.4042L116.992 12.5773L110.94 22.4098C110.921 22.4554 110.893 22.4972 110.858 22.5328C110.813 22.5779 110.758 22.6116 110.697 22.6305C110.635 22.6494 110.57 22.6528 110.507 22.6402C110.449 22.6284 110.394 22.6031 110.347 22.5667L109.503 21.9738L109.485 21.9541C109.416 21.8804 109.375 21.7861 109.367 21.6871C109.359 21.589 109.382 21.4904 109.435 21.4068L115.911 10.8692C116.163 10.4845 116.599 10.3046 117.009 10.3046Z" fill="white"/>
<path d="M125.495 27.752C125.573 27.8401 125.615 27.9539 125.613 28.0703V28.8957C125.613 29.0136 125.568 29.1278 125.485 29.2131C125.401 29.2985 125.287 29.3477 125.166 29.3477H108.807C108.689 29.3363 108.581 29.2854 108.504 29.1955C108.431 29.1113 108.392 29.0034 108.394 28.8933V28.0718C108.392 27.9632 108.427 27.8564 108.494 27.7701C108.57 27.6733 108.676 27.6186 108.794 27.5952H116.073V21.9637C116.073 21.8401 116.12 21.7204 116.207 21.6311C116.295 21.5416 116.414 21.4901 116.54 21.4901H117.51C117.632 21.5009 117.746 21.5539 117.828 21.6469C117.905 21.735 117.947 21.8488 117.946 21.9653V27.5952H125.177C125.3 27.606 125.414 27.659 125.495 27.752Z" fill="white"/>
<path fill-rule="evenodd" clip-rule="evenodd" d="M134.853 1.06967C134.395 0.874932 133.903 0.774714 133.406 0.774903C132.658 0.775189 131.928 1.00303 131.307 1.42884C130.687 1.85459 130.204 2.4589 129.919 3.16463C129.87 3.28602 129.827 3.40949 129.791 3.53455H7.97327V1.85676C7.97279 1.62203 7.88175 1.39582 7.71812 1.22795C7.55428 1.05987 7.3303 0.964004 7.09578 0.963502H2.08242C1.84757 0.963502 1.62364 1.05914 1.45941 1.22729C1.29538 1.39522 1.20409 1.62222 1.20361 1.85727V7.00121C1.20409 7.23625 1.29538 7.46276 1.45941 7.63069C1.62364 7.79884 1.84757 7.89448 2.08242 7.89448H3.71094V33.6069C3.27801 33.713 2.86468 33.8973 2.49113 34.1534C1.87097 34.5785 1.38856 35.1821 1.10393 35.8871C0.819332 36.592 0.744961 37.3673 0.889971 38.1152C1.03499 38.8632 1.39308 39.5511 1.91993 40.0916C2.44685 40.6322 3.11897 41.0011 3.85167 41.1506C4.5844 41.3002 5.34384 41.2234 6.03364 40.9302C6.72337 40.6371 7.31186 40.1412 7.72543 39.5062C7.93824 39.1794 8.0999 38.8233 8.20668 38.4506H130.022V40.1284C130.022 40.3631 130.113 40.5894 130.277 40.7572C130.441 40.9253 130.665 41.0212 130.899 41.0217H135.914C136.149 41.0212 136.372 40.9253 136.536 40.7572C136.7 40.5894 136.791 40.3626 136.791 40.1279V34.9858C136.791 34.7508 136.7 34.5241 136.537 34.3558C136.373 34.1873 136.149 34.0912 135.914 34.0907H134.284V8.40164C134.478 8.35421 134.669 8.2909 134.855 8.21191C135.545 7.91845 136.134 7.42202 136.548 6.78639C136.962 6.15082 137.182 5.40426 137.182 4.64107C137.182 4.13411 137.085 3.63197 136.896 3.16329C136.707 2.6946 136.429 2.26835 136.079 1.90905C135.728 1.54973 135.312 1.26439 134.853 1.06967ZM7.97327 5.32209H129.692C129.696 5.34642 129.701 5.37073 129.706 5.39501C129.851 6.14366 130.209 6.83214 130.737 7.37309C131.23 7.87906 131.851 8.23471 132.529 8.401V34.0907H130.899C130.664 34.0912 130.44 34.1873 130.276 34.3558C130.112 34.5241 130.022 34.7508 130.022 34.9858V36.6631H8.29664C8.15924 35.9007 7.79972 35.1918 7.25673 34.6347C6.76036 34.1255 6.13907 33.7723 5.46592 33.6071V7.89448H7.09631C7.33084 7.89398 7.55428 7.79811 7.71812 7.63003C7.88175 7.46215 7.97279 7.23543 7.97327 7.0007V5.32209ZM133.407 2.56244C133.805 2.56224 134.194 2.68309 134.527 2.91051C134.859 3.13801 135.119 3.46216 135.273 3.8427C135.426 4.2233 135.467 4.6425 135.389 5.04703C135.31 5.45154 135.117 5.8223 134.834 6.11272C134.551 6.40308 134.192 6.60011 133.801 6.67991C133.41 6.75969 133.006 6.71892 132.637 6.56246C132.269 6.40596 131.953 6.14044 131.73 5.79847C131.507 5.45648 131.388 5.05375 131.388 4.64124C131.389 4.08829 131.603 3.5594 131.982 3.17019C132.361 2.78121 132.874 2.56343 133.407 2.56244ZM2.95991 6.11367V2.75104H6.21829V6.11367H2.95991ZM4.58867 35.2884C4.98596 35.2882 5.37494 35.4088 5.70644 35.6358C6.03802 35.8628 6.29747 36.1864 6.451 36.5662C6.60455 36.946 6.64494 37.3644 6.5668 37.7682C6.48868 38.1719 6.29575 38.5419 6.01338 38.8318C5.73108 39.1216 5.37213 39.3182 4.98231 39.3978C4.59253 39.4775 4.18842 39.4368 3.8208 39.2806C3.45311 39.1244 3.13779 38.8594 2.91547 38.5181C2.6931 38.1768 2.57404 37.7747 2.57404 37.363C2.57404 36.8109 2.78777 36.2827 3.16629 35.8942C3.5446 35.5058 4.05635 35.2887 4.58867 35.2884ZM131.777 35.8796V39.2341H135.036V35.8796H131.777Z" fill="white"/>
</g>
<defs>
<clipPath id="clip0_191_315">
<rect width="138" height="42" fill="white"/>
</clipPath>
</defs>
</svg>
