<svg width="129" height="42" viewBox="0 0 129 42" fill="none" xmlns="http://www.w3.org/2000/svg">
<path fill-rule="evenodd" clip-rule="evenodd" d="M124.353 1.2247C123.895 1.02996 123.403 0.929743 122.906 0.929932C122.158 0.930219 121.428 1.15806 120.807 1.58387C120.187 2.00962 119.704 2.61393 119.419 3.31966C119.37 3.44105 119.327 3.56452 119.291 3.68958H8.97327V2.01179C8.97279 1.77706 8.88175 1.55085 8.71812 1.38298C8.55428 1.2149 8.3303 1.11903 8.09578 1.11853H3.08242C2.84757 1.11853 2.62364 1.21417 2.45941 1.38232C2.29538 1.55025 2.20409 1.77725 2.20361 2.0123V7.15624C2.20409 7.39128 2.29538 7.61779 2.45941 7.78572C2.62364 7.95387 2.84757 8.04951 3.08242 8.04951H4.71094V33.7619C4.27801 33.868 3.86468 34.0524 3.49113 34.3084C2.87097 34.7336 2.38856 35.3371 2.10393 36.0421C1.81933 36.747 1.74496 37.5224 1.88997 38.2703C2.03499 39.0182 2.39308 39.7061 2.91993 40.2467C3.44685 40.7872 4.11897 41.1561 4.85167 41.3057C5.5844 41.4552 6.34384 41.3784 7.03364 41.0852C7.72337 40.7921 8.31186 40.2962 8.72543 39.6612C8.93824 39.3345 9.0999 38.9783 9.20668 38.6057H119.522V40.2834C119.522 40.5182 119.613 40.7444 119.777 40.9123C119.941 41.0803 120.165 41.1762 120.399 41.1767H125.414C125.649 41.1762 125.872 41.0803 126.036 40.9123C126.2 40.7444 126.291 40.5177 126.291 40.2829V35.1409C126.291 34.9058 126.2 34.6791 126.037 34.5108C125.873 34.3424 125.649 34.2462 125.414 34.2457H123.784V8.55667C123.978 8.50924 124.169 8.44593 124.355 8.36694C125.045 8.07348 125.634 7.57705 126.048 6.94142C126.462 6.30585 126.682 5.55929 126.682 4.7961C126.682 4.28914 126.585 3.787 126.396 3.31832C126.207 2.84963 125.929 2.42338 125.579 2.06408C125.228 1.70476 124.812 1.41942 124.353 1.2247ZM8.97327 5.47712H119.192C119.196 5.50145 119.201 5.52576 119.206 5.55004C119.351 6.29869 119.709 6.98717 120.237 7.52811C120.73 8.03409 121.351 8.38974 122.029 8.55603V34.2457H120.399C120.164 34.2462 119.94 34.3424 119.776 34.5108C119.612 34.6791 119.522 34.9058 119.522 35.1409V36.8181H9.29664C9.15924 36.0557 8.79972 35.3468 8.25673 34.7897C7.76036 34.2805 7.13907 33.9273 6.46592 33.7622V8.04951H8.09631C8.33084 8.04901 8.55428 7.95314 8.71812 7.78506C8.88175 7.61718 8.97279 7.39045 8.97327 7.15573V5.47712ZM122.907 2.71747C123.305 2.71727 123.694 2.83812 124.027 3.06554C124.359 3.29304 124.619 3.61719 124.773 3.99773C124.926 4.37832 124.967 4.79753 124.889 5.20206C124.81 5.60657 124.617 5.97732 124.334 6.26775C124.051 6.55811 123.692 6.75514 123.301 6.83493C122.91 6.91472 122.506 6.87395 122.137 6.71749C121.769 6.56099 121.453 6.29547 121.23 5.9535C121.007 5.61151 120.888 5.20878 120.888 4.79627C120.889 4.24332 121.103 3.71443 121.482 3.32522C121.861 2.93624 122.374 2.71846 122.907 2.71747ZM3.95991 6.2687V2.90607H7.21829V6.2687H3.95991ZM5.58867 35.4434C5.98596 35.4432 6.37494 35.5638 6.70644 35.7908C7.03802 36.0179 7.29747 36.3414 7.451 36.7212C7.60455 37.101 7.64494 37.5194 7.5668 37.9232C7.48868 38.3269 7.29575 38.6969 7.01338 38.9868C6.73108 39.2766 6.37213 39.4732 5.98231 39.5529C5.59253 39.6325 5.18842 39.5918 4.8208 39.4357C4.45311 39.2795 4.13779 39.0145 3.91547 38.6732C3.6931 38.3318 3.57404 37.9298 3.57404 37.518C3.57404 36.966 3.78777 36.4378 4.16629 36.0492C4.5446 35.6609 5.05635 35.4437 5.58867 35.4434ZM121.277 36.0346V39.3892H124.536V36.0346H121.277Z" fill="white"/>
<path fill-rule="evenodd" clip-rule="evenodd" d="M56.7943 15.8298V33.3578H58.7943V28.029C59.5855 28.1897 60.4483 28.2698 61.3823 28.2698C63.2689 28.2698 64.6401 27.7862 65.467 26.794C66.3058 25.7908 66.7143 24.1615 66.7143 21.9298C66.7143 19.701 66.3706 18.0824 65.6638 17.0959C64.952 16.0864 63.8128 15.5898 62.2703 15.5898C61.1144 15.5898 59.9473 15.9345 58.7703 16.6183V15.8298H56.7943ZM64.6903 21.9058C64.6903 23.5641 64.4263 24.7377 63.9171 25.4476L63.9162 25.4487C63.4303 26.1472 62.5651 26.5098 61.2863 26.5098C60.7168 26.5098 59.8871 26.4271 58.7943 26.2601V18.3182L59.196 18.1068C59.5084 17.9507 59.9337 17.7929 60.4741 17.6339C61.0269 17.476 61.5374 17.3978 62.0063 17.3978C62.8879 17.3978 63.543 17.7356 63.9868 18.4089L63.9877 18.4102C64.4498 19.088 64.6903 20.2459 64.6903 21.9058Z" fill="white"/>
<path fill-rule="evenodd" clip-rule="evenodd" d="M36.7318 28.0298H38.7318V18.2461L39.0856 18.0588C39.365 17.9192 39.7654 17.7775 40.2901 17.6343L40.292 17.6338C40.8278 17.4762 41.3463 17.3978 41.8478 17.3978C42.8878 17.3978 43.5185 17.7043 43.7979 18.2777L43.7993 18.2804C43.9514 18.5693 44.0694 18.9999 44.1487 19.5794C44.2279 20.1574 44.2678 20.8765 44.2678 21.7378V28.0298H46.2678V21.6898C46.2678 20.7843 46.2418 20.0371 46.1894 19.449C46.1425 18.9219 46.0739 18.5159 45.9808 18.2373L46.3546 18.0602C46.6502 17.9202 47.0752 17.7781 47.6327 17.6347L47.6353 17.634C48.1873 17.4763 48.722 17.3978 49.2398 17.3978C50.2625 17.3978 50.8955 17.7037 51.1908 18.2795L51.1913 18.2804C51.3436 18.5697 51.4615 18.9926 51.5408 19.5558C51.6199 20.1176 51.6598 20.8126 51.6598 21.6418V28.0298H53.6598V21.5938C53.6598 19.3694 53.3812 17.8067 52.8039 16.9316C52.2326 16.0253 51.1172 15.5898 49.5038 15.5898C48.8512 15.5898 48.0973 15.7202 47.2435 15.9779C46.4463 16.2079 45.7836 16.4756 45.2578 16.7821C44.6313 15.9789 43.5722 15.5898 42.1118 15.5898C41.0022 15.5898 39.8671 15.927 38.7078 16.595V15.8298H36.7318V28.0298Z" fill="white"/>
<path fill-rule="evenodd" clip-rule="evenodd" d="M31.4818 15.8299V28.0299H33.4818V15.8299H31.4818Z" fill="white"/>
<path fill-rule="evenodd" clip-rule="evenodd" d="M31.4818 11.0299V13.3179H33.4818V11.0299H31.4818Z" fill="white"/>
<path fill-rule="evenodd" clip-rule="evenodd" d="M26.2318 15.8299V28.0299H28.2318V15.8299H26.2318Z" fill="white"/>
<path fill-rule="evenodd" clip-rule="evenodd" d="M26.2318 11.0299V13.3179H28.2318V11.0299H26.2318Z" fill="white"/>
<path fill-rule="evenodd" clip-rule="evenodd" d="M21.6755 24.6418C21.6755 25.3023 21.4399 25.7621 20.9797 26.0443C20.5223 26.3186 19.8397 26.4618 18.9195 26.4618C17.9992 26.4618 16.6291 26.3268 14.8062 26.0549L14.6984 26.0389L14.5901 27.7977L15.3991 27.9325C16.7466 28.1571 17.9204 28.2698 18.9195 28.2698C20.4493 28.2698 21.6259 27.9805 22.4343 27.3867C23.2667 26.7872 23.6755 25.8489 23.6755 24.5938C23.6755 23.351 23.3776 22.4706 22.7478 21.9941C22.1359 21.531 21.1079 21.1839 19.6806 20.9433C18.9703 20.8156 18.3893 20.6922 17.9369 20.5731C17.4835 20.4538 17.1662 20.3406 16.9777 20.2353C16.6151 20.0172 16.4275 19.6543 16.4275 19.1218C16.4275 18.5411 16.6337 18.1183 17.0387 17.8359C17.4502 17.5489 18.08 17.3978 18.9435 17.3978C19.9605 17.3978 21.355 17.5251 23.1292 17.7808L23.2399 17.7968L23.2941 16.0626L22.5371 15.9274L22.5345 15.927C21.0599 15.7026 19.8304 15.5898 18.8475 15.5898C17.6002 15.5898 16.5468 15.874 15.6949 16.4474C14.8466 17.0296 14.4275 17.9277 14.4275 19.1218C14.4275 20.3025 14.7264 21.1428 15.3565 21.6026C15.9685 22.0492 16.9883 22.38 18.3998 22.6046C19.102 22.7163 19.6784 22.8317 20.13 22.9506C20.5836 23.0699 20.904 23.191 21.0991 23.311L21.1015 23.3125C21.4735 23.527 21.6755 23.9553 21.6755 24.6418Z" fill="white"/>
<path fill-rule="evenodd" clip-rule="evenodd" d="M105.462 28.0773L104.7 27.9958V10.5979H106.676V16.3749C107.853 15.8526 108.996 15.5899 110.104 15.5899C111.738 15.5899 112.904 16.0593 113.57 17.0243C114.246 17.9638 114.572 19.5997 114.572 21.9059C114.572 24.2159 114.165 25.8709 113.324 26.8432C112.495 27.8053 110.977 28.2699 108.808 28.2699C108.132 28.2699 107.016 28.2056 105.464 28.0776L105.462 28.0773ZM111.799 25.4479C112.292 24.7545 112.548 23.5733 112.548 21.8819C112.548 20.1874 112.347 19.0278 111.963 18.381L111.962 18.3802C111.585 17.7319 110.913 17.3979 109.912 17.3979C108.997 17.3979 108.057 17.5714 107.09 17.92L106.676 18.0648V26.3493C107.668 26.4245 108.369 26.4619 108.784 26.4619C110.346 26.4619 111.333 26.1097 111.799 25.4479Z" fill="white"/>
<path fill-rule="evenodd" clip-rule="evenodd" d="M99.3491 20.4949V19.5538C99.3491 18.7482 99.1746 18.1968 98.8503 17.8726C98.5211 17.5433 98.0688 17.3738 97.4811 17.3738C96.2052 17.3738 94.8811 17.4536 93.5086 17.6132L93.5067 17.6134L92.6587 17.6954L92.5767 16.1367L92.6615 16.1198C94.426 15.7669 95.9928 15.5898 97.3611 15.5898C98.7329 15.5898 99.7491 15.9041 100.384 16.5556C101.034 17.206 101.349 18.2129 101.349 19.5538V25.6937C101.372 25.9601 101.486 26.1685 101.693 26.3262C101.906 26.4875 102.223 26.5998 102.654 26.6546L102.746 26.6663L102.664 28.2698H102.569C101.32 28.2698 100.356 27.9613 99.6916 27.3286C98.2607 27.9555 96.8276 28.2698 95.3931 28.2698C94.27 28.2698 93.3998 27.9519 92.7996 27.3017C92.201 26.6532 91.9091 25.7295 91.9091 24.5458C91.9091 23.363 92.2088 22.4749 92.8289 21.9047C93.4437 21.3234 94.3969 20.9754 95.671 20.8464L99.3491 20.4949ZM98.8642 26.0114L99.3491 25.8428V22.0638L95.9065 22.3894C95.1989 22.4523 94.7072 22.6553 94.4111 22.9811C94.1136 23.3083 93.9571 23.7925 93.9571 24.4498C93.9571 25.1746 94.1071 25.6995 94.3902 26.0422C94.6702 26.3811 95.094 26.5578 95.6811 26.5578C96.7575 26.5578 97.8185 26.3758 98.8642 26.0114Z" fill="white"/>
<path fill-rule="evenodd" clip-rule="evenodd" d="M87.2664 10.5979V28.0299H89.2664V10.5979H87.2664Z" fill="white"/>
<path fill-rule="evenodd" clip-rule="evenodd" d="M83.2562 26.3422L84.0575 26.2593L84.1122 27.8724L84.0231 27.8849C82.1962 28.1413 80.6313 28.2698 79.3292 28.2698C77.5832 28.2698 76.322 27.7681 75.5762 26.7406C74.8382 25.7074 74.4772 24.1215 74.4772 22.0018C74.4772 19.8873 74.8968 18.2829 75.7529 17.2056C76.6124 16.124 77.8989 15.5898 79.5932 15.5898C81.2277 15.5898 82.4673 16.0516 83.2921 16.9916C84.1157 17.9143 84.5172 19.3597 84.5172 21.3058V21.3129L84.4144 22.7738H76.5016C76.5135 24.0418 76.752 24.9669 77.2012 25.5658C77.6545 26.1703 78.4489 26.4858 79.6172 26.4858C80.8141 26.4858 82.0271 26.438 83.2562 26.3422ZM81.8177 18.1745C81.3794 17.6002 80.6473 17.3018 79.5932 17.3018C78.5587 17.3018 77.7901 17.6143 77.2698 18.2261C76.7761 18.825 76.5063 19.7877 76.4788 21.1338H82.5168C82.5061 19.7208 82.2663 18.7428 81.8187 18.1758L81.8177 18.1745Z" fill="white"/>
<path fill-rule="evenodd" clip-rule="evenodd" d="M69.5945 10.5979V28.0299H71.5945V10.5979H69.5945Z" fill="white"/>
</svg>
