<svg width="92" height="32" viewBox="0 0 92 32" fill="none" xmlns="http://www.w3.org/2000/svg">
<g clip-path="url(#clip0_176_689)">
<path d="M43.6046 9.21971L43.2502 13.2672H27.0574L27.9498 3.0614H31.9513L31.4133 9.21971H43.6046Z" fill="white"/>
<path d="M20.6074 20.4729H4.4436L5.49713 8.42053H9.54051L8.84137 16.4221H20.9618L20.6074 20.4729Z" fill="white"/>
<path d="M48.5244 32H26.426L27.2154 22.9768H31.2587L30.8238 27.9524H48.8788L48.5244 32Z" fill="white"/>
<path d="M23.3073 27.9524C20.9586 27.9524 12.9749 27.9524 12.9749 27.9524L13.4099 22.9768H9.36648L8.93154 27.9524H0.358305L0.00390625 32H22.9529L23.3073 27.9524Z" fill="white"/>
<path d="M23.4749 20.4729H47.7576L48.1152 16.3964H48.112H23.8486L23.8325 16.3932L23.4749 20.4729Z" fill="white"/>
<path d="M67.1884 6.15186L66.8372 10.1768H62.8261L63.1772 6.15186H59.1339L58.9599 8.15306H54.9101L55.0841 6.15186H51.0407L49.9807 18.2719H62.114L62.4684 14.2244H66.4796L66.1252 18.2719H70.1686L71.2285 6.15186H67.1852H67.1884ZM58.5314 14.2598H54.4816L54.7168 11.5529H58.7666L58.5314 14.2598Z" fill="white"/>
<path d="M66.6407 20.4858L66.4635 22.4934H56.8625L57.0397 20.4858L53.006 20.4729L51.9976 32H69.6853L70.6937 20.4729L66.6407 20.4858V20.4858ZM65.9512 28.4165H56.3502L56.5596 26.0221H66.1606L65.9512 28.4165Z" fill="white"/>
<path d="M79.9659 0L77.8428 1.22135L80.8197 6.37744H74.8755V8.82336H80.8197L77.8428 13.9762L79.9659 15.1976L84.3508 7.59879L79.9659 0Z" fill="white"/>
<path d="M85.7388 9.99444L83.6172 11.2172L85.9125 15.2017L88.0341 13.9789L85.7388 9.99444Z" fill="white"/>
<path d="M91.0007 6.37427H85.3979V8.82019H91.0007V6.37427Z" fill="white"/>
<path d="M85.9115 0.00361845L83.6169 3.98853L85.7388 5.21088L88.0333 1.22597L85.9115 0.00361845Z" fill="white"/>
</g>
<defs>
<clipPath id="clip0_176_689">
<rect width="91" height="32" fill="white" transform="translate(0.00390625)"/>
</clipPath>
</defs>
</svg>
