<svg width="98" height="20" viewBox="0 0 98 20" fill="none" xmlns="http://www.w3.org/2000/svg">
<path d="M97.3109 0.0100098H89.8513V18.7359H97.3109V0.0100098Z" fill="white"/>
<path d="M29.3003 0.010498V3.95069H38.0223V18.7363H45.5007V3.95069H54.2254V0.010498H29.3003Z" fill="white"/>
<path d="M24.8867 3.9502V0.0100098H0.53125V15.1522C0.53125 17.1278 2.13322 18.7306 4.10878 18.7306H24.8867V14.7882H8.01135V11.3406H24.8867V7.39955H8.01135V3.9502H24.8867Z" fill="white"/>
<path d="M76.7156 10.0023H67.9126L78.0091 19.9899H86.813L76.7156 10.0023Z" fill="white"/>
<path d="M80.6203 0.010498H57.9727V18.7363H65.4528V3.95069H76.7173V10.0029H84.1996V3.58497C84.1996 1.60941 82.5976 0.010498 80.6203 0.010498Z" fill="white"/>
</svg>
