<svg width="190" height="34" viewBox="0 0 190 34" fill="none" xmlns="http://www.w3.org/2000/svg">
<path d="M42.8495 27.4802C42.8495 26.8066 42.5718 26.4453 41.8347 26.4453C41.6043 26.4453 40.7857 26.4842 40.7857 27.6746V29.6077C40.7857 30.8577 41.1485 31.1725 41.8347 31.1725C42.3598 31.1725 42.707 31.0318 42.857 30.9208V29.2115H41.8098V28.5801H43.5902V31.3549C43.1181 31.6059 42.5718 31.7841 41.8347 31.7841C40.6307 31.7841 40.0415 31.1577 40.0415 29.5753V27.702C40.0415 26.5636 40.6307 25.8345 41.8347 25.8345C43.0774 25.8345 43.6557 26.2842 43.6125 27.4802H42.8495Z" fill="white"/>
<path d="M47.5331 25.9514H48.2695L46.707 29.4865V31.6623H45.9789V29.4865L44.4485 25.9514H45.2638L46.3773 28.7111L47.5331 25.9514Z" fill="white"/>
<path d="M49.0642 31.6623V25.9514H52.0006V26.5853H49.7883V28.4202H51.843V29.0508H49.7883V31.0319H52.0493V31.6623H49.0642Z" fill="white"/>
<path d="M53.0667 29.5753V27.702C53.0667 26.5636 53.6533 25.8345 54.8654 25.8345C56.0776 25.8345 56.6643 26.5636 56.6643 27.702V29.5753C56.6643 31.1577 56.0776 31.7841 54.8654 31.7841C53.6533 31.7841 53.0667 31.1577 53.0667 29.5753ZM55.9161 29.6077V27.6746C55.9161 26.4842 55.1008 26.4453 54.8654 26.4453C54.6352 26.4453 53.8116 26.4842 53.8116 27.6746V29.6077C53.8116 30.8577 54.1744 31.1725 54.8654 31.1725C55.5505 31.1725 55.9161 30.8577 55.9161 29.6077Z" fill="white"/>
<path d="M61.9666 25.9514V31.6623H60.9616L58.7114 26.7104H58.6898V31.6623H58.0493V25.9514H59.0749L61.2987 30.8422H61.3128V25.9514H61.9666Z" fill="white"/>
<path d="M66.1041 27.4802C66.1041 26.8066 65.8234 26.4453 65.0835 26.4453C64.8589 26.4453 64.0323 26.4842 64.0323 27.6746V29.6077C64.0323 30.8577 64.3983 31.1725 65.0835 31.1725C65.6038 31.1725 65.9566 31.0318 66.1076 30.9208V29.2115H65.0579V28.5801H66.8342V31.3549C66.3644 31.6059 65.8234 31.7841 65.0835 31.7841C63.873 31.7841 63.2891 31.1577 63.2891 29.5753V27.702C63.2891 26.5636 63.873 25.8345 65.0835 25.8345C66.3222 25.8345 66.9078 26.2842 66.8598 27.4802H66.1041Z" fill="white"/>
<path d="M68.8367 29.9638V30.1306C68.8367 30.9044 69.3246 31.1494 69.797 31.1494C70.3769 31.1494 70.8093 30.9044 70.8093 30.2266C70.8093 28.9583 68.25 29.0997 68.25 27.3864C68.25 26.3699 68.9709 25.8347 69.9311 25.8347C70.9726 25.8347 71.555 26.341 71.511 27.504H70.7472C70.7562 26.8769 70.5575 26.4661 69.8723 26.4661C69.4367 26.4661 68.9967 26.688 68.9967 27.3038C68.9967 28.5648 71.555 28.3806 71.555 30.1934C71.555 31.3949 70.7281 31.7843 69.7844 31.7843C68.101 31.7991 68.101 30.51 68.1101 29.9638H68.8367Z" fill="white"/>
<path d="M74.0464 25.9514H74.9702L76.8234 31.6623H76.0091L75.5981 30.3043H73.3894L72.9668 31.6623H72.2261L74.0464 25.9514ZM74.4846 26.6243H74.4687L73.5791 29.6699H75.4001L74.4846 26.6243Z" fill="white"/>
<path d="M81.6195 25.9514V31.6623H80.6213L78.3726 26.7104H78.3495V31.6623H77.6992V25.9514H78.7298L80.9544 30.8422H80.9682V25.9514H81.6195Z" fill="white"/>
<path d="M85.7547 27.4802C85.7547 26.8066 85.4771 26.4453 84.7437 26.4453C84.5151 26.4453 83.6907 26.4842 83.6907 27.6746V29.6077C83.6907 30.8577 84.0487 31.1725 84.7437 31.1725C85.2635 31.1725 85.6173 31.0318 85.7623 30.9208V29.2115H84.7133V28.5801H86.4954V31.3549C86.0248 31.6059 85.4771 31.7841 84.7437 31.7841C83.5327 31.7841 82.9478 31.1577 82.9478 29.5753V27.702C82.9478 26.5636 83.5327 25.8345 84.7437 25.8345C85.9808 25.8345 86.5552 26.2842 86.5168 27.4802H85.7547Z" fill="white"/>
<path d="M91.8833 25.9514V31.6623H90.8906L88.6389 26.7104H88.6208V31.6623H87.9761V25.9514H89.0007L91.2129 30.8422H91.2353V25.9514H91.8833Z" fill="white"/>
<path d="M94.5722 25.9514H95.5029L97.3588 31.6623H96.5443L96.1358 30.3043H93.9245L93.5012 31.6623H92.7612L94.5722 25.9514ZM95.0149 26.6243H95.0024L94.1044 29.6699H95.9353L95.0149 26.6243Z" fill="white"/>
<path d="M98.8857 31.6623H98.2046V25.9514H99.3819L100.824 30.7485H100.84L102.292 25.9514H103.498V31.6623H102.773V26.5853H102.758L101.154 31.6623H100.462L98.9038 26.5853H98.8857V31.6623Z" fill="white"/>
<path d="M104.879 25.9514H106.638C107.371 25.9514 107.888 26.214 108.171 26.8238C108.396 27.3036 108.423 28.4436 108.423 28.6242C108.423 29.8453 108.312 30.5453 108.077 30.9292C107.77 31.4179 107.195 31.6623 106.191 31.6623H104.879V25.9514ZM105.613 31.0319H106.297C107.31 31.0319 107.681 30.6473 107.681 29.3194V28.1669C107.681 27.0112 107.326 26.5853 106.571 26.5853H105.613V31.0319Z" fill="white"/>
<path d="M109.752 29.5753V27.702C109.752 26.5636 110.342 25.8345 111.553 25.8345C112.761 25.8345 113.343 26.5636 113.343 27.702V29.5753C113.343 31.1577 112.761 31.7841 111.553 31.7841C110.342 31.7841 109.752 31.1577 109.752 29.5753ZM112.602 29.6077V27.6746C112.602 26.4842 111.779 26.4453 111.553 26.4453C111.318 26.4453 110.494 26.4842 110.494 27.6746V29.6077C110.494 30.8577 110.862 31.1725 111.553 31.1725C112.238 31.1725 112.602 30.8577 112.602 29.6077Z" fill="white"/>
<path d="M116.502 29.5753V27.702C116.502 26.5636 117.086 25.8345 118.297 25.8345C119.512 25.8345 120.09 26.5636 120.09 27.702V29.5753C120.09 31.1577 119.512 31.7841 118.297 31.7841C117.086 31.7841 116.502 31.1577 116.502 29.5753ZM119.351 29.6077V27.6746C119.351 26.4842 118.524 26.4453 118.297 26.4453C118.065 26.4453 117.242 26.4842 117.242 27.6746V29.6077C117.242 30.8577 117.607 31.1725 118.297 31.1725C118.991 31.1725 119.351 30.8577 119.351 29.6077Z" fill="white"/>
<path d="M121.383 31.6623V25.9514H124.214V26.5853H122.115V28.4202H124.102V29.0508H122.115V31.6623H121.383Z" fill="white"/>
<path d="M124.977 31.6623V25.9514H127.804V26.5853H125.704V28.4202H127.691V29.0508H125.704V31.6623H124.977Z" fill="white"/>
<path d="M128.713 25.9514H129.438V31.6623H128.713V25.9514Z" fill="white"/>
<path d="M133.418 27.5299C133.424 27.2015 133.394 26.8767 133.247 26.6963C133.092 26.5146 132.757 26.451 132.609 26.451C132.006 26.451 131.772 26.8156 131.747 26.8932C131.719 26.9573 131.583 27.0998 131.583 28.0799V29.6077C131.583 31.0062 132.037 31.1725 132.594 31.1725C132.821 31.1725 133.492 31.0941 133.5 29.9788H134.247C134.284 31.7841 133.01 31.7841 132.637 31.7841C131.926 31.7841 130.834 31.7353 130.834 29.519V27.9068C130.834 26.2927 131.545 25.8345 132.677 25.8345C133.802 25.8345 134.231 26.4179 134.165 27.5299H133.418Z" fill="white"/>
<path d="M135.373 31.6623V25.9514H138.317V26.5853H136.104V28.4202H138.158V29.0508H136.104V31.0319H138.37V31.6623H135.373Z" fill="white"/>
<path d="M141.219 29.5753V27.702C141.219 26.5636 141.805 25.8345 143.02 25.8345C144.221 25.8345 144.808 26.5636 144.808 27.702V29.5753C144.808 31.1577 144.221 31.7841 143.02 31.7841C141.805 31.7841 141.219 31.1577 141.219 29.5753ZM144.069 29.6077V27.6746C144.069 26.4842 143.242 26.4453 143.02 26.4453C142.792 26.4453 141.963 26.4842 141.963 27.6746V29.6077C141.963 30.8577 142.329 31.1725 143.02 31.1725C143.706 31.1725 144.069 30.8577 144.069 29.6077Z" fill="white"/>
<path d="M146.099 31.6623V25.9514H148.932V26.5853H146.826V28.4202H148.819V29.0508H146.826V31.6623H146.099Z" fill="white"/>
<path d="M151.585 31.6623V25.9514H154.523V26.5853H152.309V28.4202H154.367V29.0508H152.309V31.0319H154.571V31.6623H151.585Z" fill="white"/>
<path d="M155.637 25.9514H157.381C158.114 25.9514 158.634 26.214 158.921 26.8238C159.154 27.3036 159.176 28.4436 159.176 28.6242C159.176 29.8453 159.064 30.5453 158.828 30.9292C158.515 31.4179 157.943 31.6623 156.944 31.6623H155.637V25.9514ZM156.356 31.0319H157.047C158.061 31.0319 158.429 30.6473 158.429 29.3194V28.1669C158.429 27.0112 158.076 26.5853 157.312 26.5853H156.356V31.0319Z" fill="white"/>
<path d="M160.505 25.9512H161.231V29.6076C161.231 30.8576 161.613 31.1724 162.296 31.1724C162.989 31.1724 163.371 30.8576 163.371 29.6076V25.9512H164.094V29.5752C164.094 31.1578 163.511 31.7839 162.296 31.7839C161.088 31.7839 160.505 31.1578 160.505 29.5752V25.9512Z" fill="white"/>
<path d="M167.956 27.5299C167.963 27.2015 167.935 26.8767 167.786 26.6963C167.637 26.5146 167.3 26.451 167.148 26.451C166.546 26.451 166.311 26.8156 166.287 26.8932C166.265 26.9573 166.124 27.0998 166.124 28.0799V29.6077C166.124 31.0062 166.577 31.1725 167.14 31.1725C167.363 31.1725 168.031 31.0941 168.045 29.9788H168.792C168.825 31.7841 167.549 31.7841 167.185 31.7841C166.472 31.7841 165.382 31.7353 165.382 29.519V27.9068C165.382 26.2927 166.088 25.8345 167.209 25.8345C168.343 25.8345 168.78 26.4179 168.707 27.5299H167.956Z" fill="white"/>
<path d="M171.203 25.9514H172.132L173.993 31.6623H173.176L172.762 30.3043H170.553L170.13 31.6623H169.395L171.203 25.9514ZM171.652 26.6243H171.633L170.743 29.6699H172.57L171.652 26.6243Z" fill="white"/>
<path d="M177.448 25.9514V26.5853H175.943V31.6623H175.21V26.5853H173.718V25.9514H177.448Z" fill="white"/>
<path d="M178.372 25.9514H179.102V31.6623H178.372V25.9514Z" fill="white"/>
<path d="M180.527 29.5753V27.702C180.527 26.5636 181.118 25.8345 182.331 25.8345C183.536 25.8345 184.125 26.5636 184.125 27.702V29.5753C184.125 31.1577 183.536 31.7841 182.331 31.7841C181.118 31.7841 180.527 31.1577 180.527 29.5753ZM183.382 29.6077V27.6746C183.382 26.4842 182.558 26.4453 182.331 26.4453C182.101 26.4453 181.276 26.4842 181.276 27.6746V29.6077C181.276 30.8577 181.639 31.1725 182.331 31.1725C183.019 31.1725 183.382 30.8577 183.382 29.6077Z" fill="white"/>
<path d="M189.424 25.9514V31.6623H188.424L186.176 26.7104H186.155V31.6623H185.511V25.9514H186.535L188.757 30.8422H188.775V25.9514H189.424Z" fill="white"/>
<path d="M189.522 17.3857V5.55731H186.551V8.95723H184.026V10.3878H186.551V13.4179C185.518 12.8976 184.27 12.5647 182.913 12.4941V12.4757C182.913 12.4757 179.168 10.5429 178.157 7.66581V7.09948H182.308V5.67088H178.157V4.50684H175.318V5.67088H171.004V7.09948H175.318V7.47561C174.401 10.4592 170.493 12.4757 170.493 12.4757L170.553 14.0847C173.445 13.5835 175.496 11.7011 176.699 10.2014C177.425 11.0903 178.442 12.0675 179.748 12.8197C177.085 13.528 175.193 15.3036 175.193 17.3857C175.193 20.1029 178.399 22.3026 182.359 22.3026C185.865 22.3026 188.787 20.5703 189.398 18.2829L189.522 18.35V17.3857ZM182.359 20.8778C180.164 20.8778 178.386 19.32 178.386 17.3857C178.386 15.4586 180.164 13.9033 182.359 13.9033C182.468 13.9033 182.588 13.9084 182.703 13.9116C182.752 13.9192 182.798 13.938 182.853 13.9498V13.929C184.807 14.1453 186.328 15.6111 186.328 17.3857C186.328 19.32 184.552 20.8778 182.359 20.8778Z" fill="white"/>
<path d="M51.2738 6.22049H51.2351L51.3354 5.29614H40.0302V7.02826H47.9807C47.7362 8.66792 46.3627 12.5055 39.9028 12.6507L39.8447 14.3158C39.8447 14.3158 50.597 14.6853 51.2738 6.22049ZM59.188 16.1444V5.42227H52.6957V6.85038H56.2194V9.05735H52.6957V10.4907H56.2194V12.9389C55.168 12.4467 53.9145 12.1553 52.5748 12.1553C48.8553 12.1553 46.2596 14.267 46.2596 16.978C46.2596 19.693 48.8553 21.9804 52.5748 21.9804C56.2963 21.9804 59.3005 19.7825 59.3005 17.0707C59.3005 16.7516 59.255 16.4428 59.188 16.1444ZM52.5748 20.6797C50.4148 20.6797 48.8689 19.0732 48.8689 17.0765C48.8689 15.0816 50.4148 13.4535 52.5748 13.4535C54.728 13.4535 56.4745 15.0715 56.4745 17.0707C56.4745 19.0656 54.728 20.6797 52.5748 20.6797Z" fill="white"/>
<path d="M82.5318 6.85008V5.42222H76.9759V13.2803C75.8962 12.7442 74.5963 12.413 73.178 12.3507C72.4787 11.9937 69.4647 10.3166 68.5766 7.77368V5.05591H65.7339V7.58373C64.8133 10.5726 60.9094 12.5909 60.9094 12.5909L60.974 14.1984C63.8679 13.6946 65.9121 11.8155 67.114 10.3143C67.7879 11.1362 68.6336 12.0904 69.777 12.7947C67.3196 13.576 65.6136 15.2752 65.6136 17.2513C65.6136 19.9656 68.8135 22.1618 72.7719 22.1618C76.6686 22.1618 79.825 20.0407 79.9311 17.3928L79.9436 17.3978V6.85008H82.5318ZM72.7719 20.7442C70.5805 20.7442 68.806 19.1809 68.806 17.2513C68.806 15.3755 70.4954 13.8512 72.5963 13.7708C72.8159 13.7956 73.0388 13.8147 73.2692 13.8147V13.7956C75.2277 14.011 76.7414 15.4735 76.7414 17.2513C76.7414 19.1809 74.9701 20.7442 72.7719 20.7442Z" fill="white"/>
<path d="M99.1601 5.42212V11.5363H87.2288V5.42212H84.5708V12.9614H99.1601V14.9339H86.1873V21.2464H102.12V6.85022H104.717V5.42212H99.1601ZM99.1536 19.8155H89.1461V16.3648H99.1536V19.8155Z" fill="white"/>
<path d="M128.495 5.6709V7.09951H141.844V19.7517H139.313V12.0946H136.342V19.7517H133.749V12.0946H130.784V19.7517H127.754V21.176H144.808V5.6709H128.495Z" fill="white"/>
<path d="M123.555 7.09951V5.6709H107.25V14.5646H109.59V14.5744H114.229V19.7535H107.25V21.1843H123.555V19.7535H117.192V14.5744H123.555V13.1453H110.213V7.09951H123.555Z" fill="white"/>
<path d="M167.731 14.4485V13.0274H148.082V14.4485H152.869V16.1726H149.438V17.6059H163.284V21.176H166.249V16.1726H162.483V14.4485H167.731ZM159.509 16.1726H155.837V14.4485H159.509V16.1726ZM157.878 11.881C162.511 11.881 166.28 10.1325 166.28 7.9798C166.28 5.83488 162.511 4.09497 157.878 4.09497C153.231 4.09497 149.467 5.83488 149.467 7.9798C149.467 10.1325 153.231 11.881 157.878 11.881ZM157.878 5.57885C160.361 5.57885 162.379 6.65471 162.379 7.9798C162.379 9.32248 160.361 10.3981 157.878 10.3981C155.386 10.3981 153.37 9.32248 153.37 7.9798C153.37 6.65471 155.386 5.57885 157.878 5.57885Z" fill="white"/>
<path d="M20.5552 31.9175C9.89638 35.4479 3.48623 29.4437 2.34707 27.892C-2.76989 20.998 2.65761 14.7567 8.69515 12.2861C8.69515 12.2861 2.50385 15.5338 3.89728 20.6342C5.28594 25.7371 11.3978 27.6684 17.1188 26.1255L22.9993 24.0376L28.4899 29.2483L20.5552 31.9175Z" fill="white"/>
<path d="M7.89502 16.5056L13.3838 21.7203L19.2636 19.6324C24.9813 18.0829 31.0949 20.0151 32.4808 25.1247C33.876 30.2306 27.6895 33.4718 27.6895 33.4718C33.7195 30.9987 38.4214 24.6456 33.876 17.9282C32.7931 16.3347 27.2001 9.96129 16.0433 13.6986L7.89502 16.5056Z" fill="white"/>
<path d="M13.0949 5.63242C13.0949 2.81334 15.3805 0.528026 18.2 0.528026C21.0195 0.528026 23.3052 2.81334 23.3052 5.63242C23.3052 8.4515 21.0195 10.7368 18.2 10.7368C15.3805 10.7368 13.0949 8.4515 13.0949 5.63242Z" fill="white"/>
</svg>
