<svg width="56" height="54" viewBox="0 0 56 54" fill="none" xmlns="http://www.w3.org/2000/svg">
<path d="M37.3857 14.3067C37.5388 14.3373 37.6919 14.3781 37.8449 14.3986C38.6817 14.4904 39.5185 14.5516 40.3553 14.6639C41.9982 14.8884 43.5697 15.3374 44.9575 16.2966C46.233 17.1844 46.7943 18.4293 46.7127 19.9498C46.6412 21.3376 46.2433 22.654 45.58 23.8785C44.9167 25.0929 43.9676 26.0521 42.8758 26.8889C41.6104 27.8583 40.2022 28.5828 38.6919 29.1134C38.447 29.1951 38.2021 29.3073 37.9572 29.389C37.7735 29.4502 37.7531 29.542 37.8347 29.6951C37.9776 29.9604 38.1205 30.2359 38.2633 30.5013C38.3654 30.6951 38.3144 30.7564 38.0899 30.7564C36.3041 30.7156 34.5183 30.6543 32.7427 30.6543C28.0486 30.6441 23.3648 30.6645 18.6707 30.6849C18.1911 30.6849 17.7013 30.736 17.2216 30.7768C16.9359 30.8074 16.8237 30.6645 16.7624 30.4298C16.6502 29.991 16.5379 29.542 16.4155 29.1032C16.1196 28.042 15.8236 26.9807 15.5175 25.9194C15.2012 24.8378 14.8644 23.7561 14.5277 22.6846C14.2521 21.7968 13.946 20.909 13.6603 20.0212C13.3235 18.9906 12.997 17.9497 12.6602 16.9191C12.3235 15.9088 11.9765 14.8884 11.6398 13.8781C11.3643 13.0516 11.0887 12.225 10.7928 11.3984C10.4663 10.4596 10.1193 9.5106 9.77236 8.58199C9.39479 7.55133 9.00702 6.51047 8.61925 5.47982C8.30291 4.64305 7.96616 3.80628 7.62941 2.96951C7.26205 2.0511 6.88448 1.1327 6.50692 0.214294C6.44569 0.0612269 6.50692 0 6.64978 0C6.87428 0 7.08857 0.0204093 7.31307 0.0306138C11.9969 0.255113 16.691 0.183681 21.3851 0.193886C25.8138 0.193886 30.2426 0.193886 34.6713 0.173477C36.4061 0.163273 38.1409 0.0816362 39.8654 0.0408182C41.3553 1.551e-07 42.8349 0.183681 44.2942 0.459203C45.2228 0.632679 46.131 0.867383 46.9882 1.28577C47.7433 1.64292 48.4066 2.12254 48.927 2.78583C49.5393 3.57158 49.7026 4.47978 49.5495 5.439C49.3862 6.46966 49.0597 7.44929 48.5393 8.35749C47.8556 9.55141 46.9168 10.4902 45.7841 11.2352C44.5391 12.0515 43.1819 12.6434 41.7737 13.1332C40.3961 13.6128 38.9878 13.9291 37.5592 14.2047C37.5082 14.2149 37.4674 14.2353 37.4266 14.2455C37.3959 14.2557 37.3959 14.2863 37.3857 14.3067ZM28.4976 28.6951C28.4976 28.6849 28.4976 28.6849 28.4976 28.6747C29.9263 28.6542 31.3549 28.644 32.7835 28.593C33.2427 28.5828 33.7223 28.5318 34.1611 28.3991C35.2122 28.0828 36.1714 27.5522 37.0796 26.9297C39.2634 25.4296 40.7634 23.4704 41.243 20.8172C41.4982 19.3988 41.1206 18.1946 39.9573 17.2864C38.9981 16.5415 37.8756 16.1333 36.702 15.9292C35.5387 15.7149 34.3652 15.5925 33.1917 15.4802C31.4671 15.317 29.7426 15.4496 28.0282 15.6129C27.7323 15.6435 27.4364 15.6639 27.1404 15.7251C27.0384 15.7455 26.9057 15.8272 26.8547 15.919C26.7731 16.0415 26.7526 16.2048 26.7016 16.3476C26.4567 17.2048 26.2118 18.062 25.9771 18.9191C25.7424 19.7559 25.5179 20.5825 25.2934 21.4193C25.1097 22.1132 24.9362 22.8173 24.7628 23.5214C24.5077 24.5724 24.2628 25.6337 24.0178 26.695C23.8852 27.246 23.7729 27.8073 23.6403 28.3583C23.5382 28.7869 23.5382 28.8073 23.9872 28.7971C25.4873 28.7563 26.9874 28.7257 28.4976 28.6951ZM31.8039 13.7557C31.8039 13.7251 31.8039 13.6944 31.8039 13.6638C33.9774 13.623 36.1 13.3475 38.1613 12.6434C39.3552 12.2352 40.4573 11.6842 41.4471 10.9086C42.9268 9.76571 43.8146 8.26565 44.0901 6.41863C44.2126 5.61248 44.1717 4.82673 43.7023 4.11241C43.0594 3.12258 42.09 2.57153 40.9981 2.23479C39.9981 1.92865 38.9572 1.8164 37.9164 1.71436C35.5183 1.48986 33.1917 1.85722 30.8753 2.39806C30.7426 2.42867 30.5793 2.56133 30.5283 2.69399C30.3344 3.19401 30.161 3.69403 30.0079 4.20426C29.763 5.05123 29.5385 5.8982 29.3038 6.75538C29.1201 7.41867 28.9568 8.08197 28.7731 8.74526C28.5895 9.43917 28.4058 10.1331 28.2119 10.8372C28.0282 11.5107 27.8649 12.1842 27.6608 12.8475C27.4976 13.3985 27.518 13.4801 28.0894 13.521C29.3446 13.6128 30.5691 13.6842 31.8039 13.7557ZM17.2114 2.14295C17.2114 2.12254 17.2114 2.09192 17.2114 2.07151C15.8134 2.07151 14.4052 2.07151 13.0072 2.07151C12.7929 2.07151 12.7317 2.16335 12.7929 2.35724C12.8541 2.58174 12.9051 2.79603 12.9766 3.02053C13.2011 3.80628 13.4052 4.59203 13.6603 5.36757C14.0889 6.67374 14.5379 7.96972 14.9869 9.26569C15.4563 10.6433 15.9257 12.0209 16.3951 13.4087C16.4665 13.6128 16.589 13.7149 16.8033 13.7046C18.6299 13.6842 20.4565 13.6536 22.2831 13.6434C22.5382 13.6434 22.6811 13.5414 22.7525 13.3067C22.8647 12.9087 22.9872 12.5107 23.0892 12.1127C23.3239 11.225 23.5382 10.3372 23.7627 9.44937C24.0485 8.32687 24.3444 7.20438 24.6301 6.07168C24.8954 5.02062 25.1403 3.95935 25.3955 2.90828C25.4771 2.56133 25.4567 2.52051 25.1097 2.5001C23.7525 2.41847 22.3953 2.33683 21.0381 2.2756C19.7524 2.21438 18.4768 2.18376 17.2114 2.14295ZM19.7217 23.3581C19.7524 23.3581 19.7728 23.3581 19.8034 23.3581C19.8544 23.2561 19.9054 23.154 19.9462 23.0418C20.2218 22.0927 20.4973 21.1539 20.7626 20.2049C21.0075 19.3784 21.2524 18.5416 21.4871 17.715C21.6606 17.113 21.8443 16.5109 22.0076 15.9088C22.079 15.6333 22.0484 15.5823 21.7729 15.5823C20.334 15.5823 18.9054 15.5823 17.4666 15.5823C17.1706 15.5823 17.1196 15.6333 17.2114 15.9088C17.4257 16.5823 17.6502 17.2456 17.8747 17.9089C18.1605 18.7661 18.4564 19.6233 18.7421 20.4906C19.038 21.358 19.3238 22.2254 19.6197 23.0928C19.6503 23.1744 19.6809 23.2663 19.7217 23.3581Z" fill="white"/>
<path d="M22.8342 45.6754C23.2934 45.7366 23.7526 45.7876 24.2118 45.8692C25.171 46.0223 26.0792 46.2876 26.8854 46.8387C27.5385 47.2877 27.9262 47.9306 28.0385 48.7163C28.2834 50.4715 27.7119 51.6144 26.1608 52.5532C25.069 53.2165 23.8444 53.4818 22.5893 53.6553C21.0994 53.8594 19.5994 53.7267 18.1095 53.7267C17.1707 53.7267 16.2421 53.7471 15.3033 53.7777C15.0788 53.7879 14.9971 53.7165 15.0073 53.492C15.0788 52.2062 15.1502 50.9103 15.2114 49.6245C15.2216 49.3694 15.2318 49.1143 15.2318 48.8592C15.2318 46.0427 15.2726 43.2365 15.0992 40.4302C15.0686 39.9812 15.0379 39.5323 15.0073 39.0833C14.9869 38.7057 15.0073 38.6955 15.3849 38.7057C16.8033 38.7159 18.2217 38.7363 19.6402 38.7363C20.7423 38.7465 21.8443 38.6955 22.9464 38.7567C23.9771 38.8077 24.9771 39.0322 25.9057 39.5118C26.967 40.0527 27.4772 41.0629 27.3242 42.2466C27.1609 43.512 26.3853 44.2671 25.3037 44.7978C24.5077 45.1855 23.6709 45.4509 22.8036 45.6243C22.8342 45.6345 22.8342 45.655 22.8342 45.6754ZM17.6503 48.6449C17.6401 48.6449 17.6299 48.6449 17.6197 48.6449C17.6809 49.951 17.7523 51.2572 17.8034 52.5634C17.8136 52.7981 17.8952 52.9001 18.1299 52.9104C19.2116 52.9308 20.2831 52.992 21.3647 52.9716C21.8648 52.9614 22.3852 52.8389 22.8546 52.6654C24.1199 52.1858 25.0588 51.3695 25.3547 49.9817C25.5588 49.002 25.3853 48.1244 24.62 47.4305C24.0281 46.8999 23.2934 46.655 22.528 46.5121C21.0178 46.2264 19.4871 46.206 17.9564 46.2162C17.7115 46.2162 17.6503 46.3284 17.6503 46.5427C17.6503 47.2264 17.6503 47.9408 17.6503 48.6449ZM17.6299 43.2977C17.6401 43.2977 17.6401 43.2977 17.6503 43.2977C17.6503 43.91 17.6503 44.5223 17.6503 45.1345C17.6503 45.308 17.6911 45.41 17.8952 45.41C19.4871 45.4202 21.079 45.4611 22.6097 44.9202C23.5995 44.5733 24.4669 44.0324 24.7424 42.9303C24.9261 42.2058 24.8853 41.4813 24.4057 40.8486C23.8954 40.1649 23.1607 39.8588 22.375 39.6955C20.977 39.3996 19.5585 39.471 18.1401 39.5527C17.936 39.5629 17.834 39.6547 17.8238 39.869C17.7523 41.0017 17.6911 42.1548 17.6299 43.2977Z" fill="white"/>
<path d="M39.4879 42.0425C39.4675 42.1752 39.4369 42.267 39.4369 42.3691C39.3144 45.5427 39.3859 48.7265 39.4981 51.9001C39.5185 52.4205 39.5696 52.9307 39.6002 53.4511C39.6206 53.7573 39.59 53.7675 39.294 53.7573C38.8144 53.7471 38.345 53.7471 37.8654 53.7573C37.5797 53.7675 37.5491 53.7471 37.5797 53.4614C37.6511 52.7266 37.7532 51.9919 37.8042 51.2572C37.9062 49.7163 38.0389 48.1754 38.0593 46.6243C38.1001 44.012 38.0593 41.3894 38.0695 38.7771C38.0695 38.6444 38.1205 38.4199 38.1715 38.4097C38.3348 38.3893 38.5491 38.3995 38.6716 38.4913C39.3655 39.022 40.0288 39.5832 40.7125 40.1343C43.5901 42.4609 46.4576 44.7875 49.3353 47.1142C50.5598 48.0938 51.7946 49.053 53.0293 50.0224C53.0905 50.0735 53.1722 50.1041 53.2742 50.1755C53.2946 50.0428 53.315 49.951 53.315 49.849C53.2946 47.1244 53.2844 44.3895 53.2538 41.6649C53.2436 40.7772 53.1824 39.8792 53.1415 38.9914C53.1313 38.6954 53.1415 38.6954 53.4273 38.7056C53.8457 38.7158 54.2742 38.7261 54.6926 38.7056C54.9886 38.6954 55.0192 38.7056 54.9988 39.0016C54.8661 40.92 54.662 42.8487 54.6008 44.7671C54.5396 46.808 54.5906 48.8591 54.6008 50.9102C54.6008 51.8082 54.6314 52.7164 54.6314 53.6144C54.6314 53.7471 54.56 53.9716 54.4783 53.992C54.3559 54.0226 54.162 53.9614 54.0497 53.8695C53.5701 53.492 53.1211 53.0736 52.6517 52.6858C50.5292 50.9306 48.4169 49.1755 46.2841 47.4407C44.1208 45.6753 41.937 43.9406 39.7532 42.1956C39.692 42.1548 39.6002 42.1139 39.4879 42.0425Z" fill="white"/>
<path d="M6.25185 53.6859C4.60892 53.7165 2.95579 53.7369 1.31287 53.7676C0.986325 53.7778 0.965916 53.7573 0.986325 53.4206C1.26185 49.9409 1.22103 46.4611 1.17001 42.9814C1.1496 41.6752 1.04755 40.369 0.986325 39.0629C0.965916 38.6853 0.976121 38.6751 1.35369 38.6853C4.56811 38.7873 7.77232 38.7975 10.9867 38.6853C11.4051 38.6751 11.3949 38.6853 11.3541 39.0833C11.3337 39.2874 11.3541 39.5017 11.3847 39.716C11.4051 39.8894 11.3541 39.9813 11.1806 39.9711C10.8235 39.9609 10.4663 39.9405 10.1092 39.9302C8.07845 39.8486 6.04776 39.767 4.02727 39.6955C3.77215 39.6853 3.71093 39.7568 3.70072 40.0935C3.68031 41.4813 3.6599 42.8793 3.6395 44.2672C3.6395 44.5427 3.6497 44.8284 3.6497 45.1039C3.6497 45.308 3.72113 45.3999 3.92522 45.3999C5.0171 45.3795 6.09878 45.3795 7.19066 45.3488C8.16009 45.3182 9.12952 45.2672 10.0887 45.2162C10.6704 45.1856 10.6704 45.1856 10.6602 45.7672C10.6602 45.9305 10.65 46.0938 10.6806 46.2468C10.7214 46.4611 10.6296 46.5019 10.4459 46.4917C10.0377 46.4611 9.62954 46.4407 9.22136 46.4305C7.45598 46.3897 5.6906 46.3591 3.92522 46.3183C3.70072 46.3081 3.62929 46.4203 3.62929 46.6244C3.6395 48.5837 3.6395 50.5531 3.6395 52.5124C3.6395 52.7879 3.78236 52.8287 4.01706 52.8287C5.71101 52.7879 7.39475 52.7573 9.0887 52.7063C9.80302 52.6859 10.5071 52.6144 11.2214 52.5634C11.5276 52.543 11.5276 52.5532 11.4868 52.8593C11.4561 53.0634 11.4561 53.2675 11.4868 53.4614C11.5276 53.7676 11.5276 53.7778 11.2214 53.7778C9.63974 53.7573 8.05804 53.7369 6.47635 53.7165C6.40492 53.7165 6.32328 53.7165 6.25185 53.7165C6.25185 53.7063 6.25185 53.6961 6.25185 53.6859Z" fill="white"/>
<path d="M31.8651 53.7063C31.5283 53.7267 31.1814 53.7369 30.8446 53.7675C30.6201 53.7879 30.5487 53.7063 30.5691 53.492C30.6099 52.9715 30.6508 52.4409 30.661 51.9103C30.7018 49.2775 30.7732 46.6448 30.763 44.012C30.763 42.3487 30.6405 40.6853 30.5691 39.022C30.5589 38.6852 30.5691 38.6954 30.9059 38.6954C31.61 38.7057 32.3141 38.7159 33.0182 38.6954C33.406 38.6852 33.4264 38.675 33.3958 39.0526C33.1611 42.1548 33.1815 45.2672 33.2121 48.3795C33.2325 50.0327 33.3345 51.6858 33.3958 53.3491C33.4162 53.7675 33.4162 53.7675 32.9774 53.7471C32.5998 53.7267 32.2325 53.7471 31.8549 53.7471C31.8651 53.7369 31.8651 53.7165 31.8651 53.7063Z" fill="white"/>
</svg>
