<svg width="43" height="42" viewBox="0 0 43 42" fill="none" xmlns="http://www.w3.org/2000/svg">
<path d="M18.3492 0H0.53125V42H6.05705C7.17278 36.86 9.12411 33.4053 10.5863 31.9449C9.1609 28.528 11.1034 25.5085 11.9349 24.5593C13.6455 25.4136 14.3236 27.0508 14.7685 27.8517C16.5482 26.072 19.5835 27.0508 20.4873 28.1186C21.5564 28 24.1935 27.8339 26.1891 28.1186C28.1847 28.4034 26.6642 32.1525 25.8327 33.4576C21.3707 35.4632 20.028 38.8638 19.7062 42H32.2927C32.3102 39.0458 31.3552 37.6926 30.8217 37.3729C29.9903 37.3729 28.3057 37.4317 27.1654 36.2927C26.025 35.1537 27.3849 33.5854 27.9703 33.2195C28.5556 31.1707 30.2279 30.6102 31.1782 30.6102L31.5345 28.1186C36.4317 31.7228 39.756 38.314 41.1385 42H42.5313C42.05 33.5171 38.1502 25.9476 32.1861 20.6441C37.9829 15.4894 41.8295 8.19401 42.4827 0H24.5912C23.9554 3.89409 21.6098 7.21449 18.3492 9.16724V0Z" fill="white"/>
</svg>
