<svg width="42" height="34" viewBox="0 0 42 34" fill="none" xmlns="http://www.w3.org/2000/svg">
<path d="M41.5295 11.1747L41.5264 6.40833L41.0815 6.87838C41.0697 6.8917 39.7216 8.26616 35.851 8.26616H33.2872V0.12146H28.2539C27.0697 0.12146 26.1059 1.08208 26.1059 2.2622V8.26616H17.5585C14.6723 8.26616 13.3138 9.44184 12.2735 10.7122L8.07148 15.8896C8.07148 15.8896 10.0574 14.0096 12.9732 14.0096H35.851C38.3557 14.0096 40.0722 13.5175 40.9563 12.551C41.5854 11.8601 41.531 11.1808 41.5295 11.1747ZM33.2872 25.9825V15.0351H26.1059V27.3289C26.1059 31.2058 28.7799 33.8785 32.6609 33.8785H38.1834C39.3679 33.8785 40.3328 32.9164 40.3328 31.7319V27.9112H35.2098C34.1493 27.9112 33.2872 27.0462 33.2872 25.9825ZM13.2062 20.245L17.4377 15.0351H12.4843C10.6514 15.0351 8.85218 15.4536 7.5454 16.6028L7.17113 17.0627V0.12146H2.13945C0.960627 0.12146 0 1.08209 0 2.26646V33.8785H5.03168C6.21198 33.8785 7.17113 32.9164 7.17113 31.7319V23.3214L11.2463 28.325L14.7134 32.5906C15.412 33.4673 16.3299 33.8754 17.2757 33.8754H24.295L19.7552 28.3062L13.2062 20.245Z" fill="white"/>
</svg>
