<svg width="36" height="40" viewBox="0 0 36 40" fill="none" xmlns="http://www.w3.org/2000/svg">
<path d="M8.60758 10.0594C5.97188 10.0594 3.8269 7.91031 3.8269 5.26952C3.8269 2.63666 5.97188 0.487549 8.60758 0.487549C11.2433 0.487549 13.3883 2.63666 13.3883 5.27745C13.3883 7.91824 11.2433 10.0594 8.60758 10.0594ZM8.60758 2.86664C7.28577 2.86664 6.20141 3.94516 6.20141 5.27745C6.20141 6.60181 7.27785 7.68826 8.60758 7.68826C9.92939 7.68826 11.0137 6.60974 11.0137 5.27745C11.0137 3.94516 9.92939 2.86664 8.60758 2.86664Z" fill="white"/>
<path d="M29.0442 10.1227C27.0179 10.1227 25.3716 8.47325 25.3716 6.44309C25.3716 4.41293 27.0179 2.76343 29.0442 2.76343C31.0704 2.76343 32.7167 4.41293 32.7167 6.44309C32.7167 8.47325 31.0704 10.1227 29.0442 10.1227ZM29.0442 5.13459C28.3318 5.13459 27.7461 5.72143 27.7461 6.43516C27.7461 7.14889 28.3318 7.73573 29.0442 7.73573C29.7565 7.73573 30.3422 7.14889 30.3422 6.43516C30.3422 5.72143 29.7644 5.13459 29.0442 5.13459Z" fill="white"/>
<path d="M17.7415 39.5125C14.6388 39.5125 10.2222 35.8883 4.61045 28.7431C0.455063 23.6994 0.00390625 20.4797 0.00390625 19.3298C0.00390625 14.7065 3.75563 10.9475 8.37009 10.9475C10.982 10.9475 13.9898 12.1688 16.0477 14.0641C16.1822 14.1831 16.3564 14.3496 16.5621 14.5558C16.8787 14.8571 17.2824 15.2457 17.7573 15.6898C18.248 15.3092 18.6042 14.9365 18.9446 14.5717C19.1978 14.31 19.4274 14.0641 19.6728 13.8579C21.7386 12.0657 24.588 10.9475 27.1129 10.9475C31.7273 10.9475 35.4791 14.7065 35.4791 19.3298C35.4791 20.4797 35.0279 23.6994 30.8567 28.759C25.2687 35.8883 20.8521 39.5125 17.7415 39.5125ZM8.37009 13.3266C5.06952 13.3266 2.37841 16.0229 2.37841 19.3298C2.37841 19.8215 2.57629 22.5337 6.46257 27.2443C11.3303 33.4458 15.5411 37.1334 17.7494 37.1334C19.9577 37.1334 24.1685 33.4458 29.0125 27.2681C31.0546 24.7938 32.0835 22.8747 32.598 21.5265C31.1891 22.5178 29.1708 23.065 26.7646 23.065C21.976 23.065 17.0291 18.2989 14.9158 16.2608C14.7259 16.0705 14.5596 15.9198 14.4409 15.8088C12.8263 14.3258 10.3884 13.3266 8.37009 13.3266ZM19.5857 17.268C21.699 18.973 24.3901 20.6939 26.7646 20.6939C29.2737 20.6939 31.2999 19.9484 32.036 18.7509C32.5268 17.9579 32.4714 16.927 31.8777 15.6819C30.7775 14.2465 29.0521 13.3187 27.1129 13.3187C25.1658 13.3187 22.8546 14.2307 21.232 15.6422C21.042 15.8088 20.86 15.9991 20.6621 16.2053C20.3614 16.5304 20.021 16.8873 19.5857 17.268Z" fill="white"/>
</svg>
