<svg width="58" height="30" viewBox="0 0 58 30" fill="none" xmlns="http://www.w3.org/2000/svg">
<path d="M50.27 14.7125V1.27488C50.9081 -0.100023 53.9921 0.105067 53.9921 0.105067V3.09038H57.0306C57.456 3.09038 57.456 3.34865 57.456 3.34865V5.78702C57.4633 5.83463 57.4589 5.88331 57.4432 5.92884C57.4274 5.97437 57.4008 6.01539 57.3657 6.04832C57.3305 6.08124 57.2878 6.10508 57.2413 6.11779C57.1949 6.1305 57.146 6.13169 57.099 6.12125H53.8402V13.2768C53.8209 13.4174 53.8339 13.5605 53.8782 13.6952C53.9225 13.83 53.9968 13.9529 54.0956 14.0547C54.1945 14.1565 54.3152 14.2344 54.4486 14.2825C54.582 14.3307 54.7247 14.3479 54.8657 14.3327H57.2129V17.2572H52.8527C51.1512 17.2496 50.27 14.7125 50.27 14.7125Z" fill="white"/>
<path d="M48.0061 6.48577V3.8195C46.7147 3.05988 45.2259 3.05989 42.8787 3.11306H42.4229C39.8174 3.11306 39.1489 4.54873 39.1945 7.11624C39.1945 9.20519 40.9416 10.2155 41.876 10.77C42.0443 10.8638 42.2066 10.9678 42.3621 11.0814C42.5779 11.2441 42.8065 11.3889 43.0458 11.5144C43.8054 11.955 44.7929 12.5323 44.7625 13.2464C44.7625 14.2187 42.6204 14.0971 41.7241 14.006C40.8277 13.9148 39.3161 13.7021 39.3161 13.7021L39.2781 16.6191C40.7106 17.035 42.1924 17.2573 43.6839 17.2799C45.7045 17.2799 46.3653 16.8773 46.6768 16.6798L46.7907 16.6115C47.3239 16.2495 47.7596 15.7616 48.0593 15.191C48.6518 14.2794 48.477 12.1525 48.1352 11.3473C47.7934 10.5421 43.8814 7.84548 43.3192 7.54923C42.7571 7.25298 42.2482 6.45538 43.0762 6.36422C44.4101 6.16277 45.7698 6.20911 47.087 6.50095L48.0061 6.48577Z" fill="white"/>
<path fill-rule="evenodd" clip-rule="evenodd" d="M11.2103 3.21954C16.9226 3.21954 18.4039 8.28621 18.6849 9.54717C18.6849 9.91179 18.6849 10.7094 18.6849 12.2818C18.6849 17.0218 14.3399 18.8145 14.3399 18.8145C14.3399 18.8145 18.7001 27.4589 19.1255 28.4313C19.3515 28.9051 19.5346 29.3983 19.6724 29.9049H13.8993L8.93143 19.9919H6.0449V29.0086C6.0449 29.6466 5.6347 29.7682 5.6347 29.7682H1.07699C0.931133 29.7643 0.792309 29.7047 0.689137 29.6015C0.585965 29.4983 0.526301 29.3595 0.522461 29.2137V4.321C0.993424 3.1208 4.74593 3.16636 4.74593 3.16636C4.74593 3.16636 4.69277 3.21954 11.2103 3.21954ZM6.13605 15.2823V8.33936H10.1772C11.0201 8.42036 11.7972 8.83005 12.3403 9.47976C12.8834 10.1295 13.1487 10.9669 13.0789 11.8108C13.0789 14.6822 10.1164 15.2823 10.1164 15.2823H6.13605Z" fill="white"/>
<path d="M20.1739 2.96123C20.1739 2.96123 19.5586 3.0144 19.5586 3.48537V7.80759C19.5586 7.80759 19.6346 8.12662 20.3182 8.12662H25.514V29.3352C25.545 29.5013 25.6353 29.6506 25.7679 29.7554C25.9006 29.8601 26.0668 29.9133 26.2356 29.9049H30.9605C31.0797 29.8794 31.1856 29.8114 31.2583 29.7135C31.331 29.6157 31.3655 29.4946 31.3555 29.3731V8.15701H36.8551C36.8551 8.15701 37.4628 8.09625 37.4628 7.66326V3.37143C37.4628 3.37143 37.2729 2.94604 36.9842 2.94604L20.1739 2.96123Z" fill="white"/>
</svg>
