<svg width="91" height="48" viewBox="0 0 91 48" fill="none" xmlns="http://www.w3.org/2000/svg">
<path d="M8.96921 31.5672C7.46003 30.8628 6.22067 30.2941 6.22067 29.1457C6.22067 28.2664 6.9248 27.6277 8.31772 27.6277C8.83101 27.6277 9.24999 27.689 9.68212 27.7655C9.90806 27.8049 10.1493 27.8377 10.349 27.8377C11.5664 27.8377 12.253 27.1137 12.7092 25.7422L12.8979 25.1822C12.7027 25.1035 10.7153 24.2329 8.12249 24.2329C3.99858 24.2329 1.82036 26.8709 1.82256 29.6073C1.82256 30.9875 2.25688 31.9871 2.9347 32.7768C3.80774 33.7895 5.05588 34.4523 6.22067 35.0188C7.92068 35.85 9.45399 36.4647 9.45399 37.6962C9.45399 38.7899 8.32211 39.4111 6.80635 39.4111C4.73123 39.4111 2.91715 38.2299 2.68463 38.0855L0.980225 41.2703C1.28294 41.4409 3.4787 42.8299 7.08932 42.8299C10.939 42.8277 13.8521 40.6272 13.8521 37.2412C13.8587 33.8726 11.1584 32.6237 8.96921 31.5672Z" fill="white"/>
<path d="M24.0237 33.1398L31.0036 24.6047H26.0308L20.4613 31.9718H20.378V24.6047H16.2782L16.2804 42.6855H16.5239C18.2963 42.6855 20.4065 41.8674 20.4065 38.9145V34.7629H20.4899L26.1668 42.4602H31.3853L24.0237 33.1398Z" fill="white"/>
<path d="M31.2383 5.23352C29.7949 5.50475 27.654 6.8128 27.6627 9.12266C27.6671 11.2203 29.3891 12.4934 29.3935 15.2429C29.4022 17.3122 28.2572 18.7055 27.0222 19.4777C27.5224 19.4339 28.0686 19.4055 28.6718 19.4033C29.9353 19.3989 30.6964 19.5192 30.7447 19.528L37.2201 11.6031C35.4192 8.91705 33.32 6.83249 31.2383 5.23352Z" fill="white"/>
<path d="M36.6783 26.6346C37.4943 25.3703 37.5974 23.3514 37.6654 21.2974C37.7422 19.3813 38.1436 17.9398 40.7145 17.9311C41.2848 17.9289 41.8266 18.0076 42.8093 18.0055C46.5757 17.988 49.0347 16.6952 50.5636 15.8465C47.44 13.8604 42.8774 11.8305 37.2201 11.603C36.8516 12.6398 33.9846 20.5909 33.7653 21.234C33.7982 21.2712 34.3005 21.8333 34.9279 22.9292C35.8513 24.4298 36.3493 25.705 36.6783 26.6346Z" fill="white"/>
<path d="M22.9993 20.1404C22.6724 20.1426 22.5079 19.926 22.464 19.5498C22.4223 19.1758 20.8013 4.40008 20.5622 2.16459C20.5271 1.83649 20.4459 1.23933 20.4459 1.02497C20.4437 0.681554 20.6697 0.502191 20.9351 0.500004C21.7029 0.497816 25.8838 1.47338 30.3214 4.57726C29.0425 4.93599 26.7305 6.26372 26.7393 9.00887C26.7481 11.439 28.492 12.7777 28.5029 15.2166C28.5161 19.1779 23.9447 20.1382 22.9993 20.1404Z" fill="white"/>
<path d="M37.0491 27.689C37.1193 27.8727 37.1851 28.028 37.2509 28.1352C37.354 28.308 37.4856 28.3867 37.6479 28.3845C37.751 28.3845 37.8782 28.3495 38.0164 28.2861C38.3586 28.1286 51.882 21.8509 53.922 20.9125C54.2181 20.7703 54.7775 20.521 54.964 20.4138C55.1548 20.3044 55.2425 20.1447 55.2425 19.9851C55.2425 19.8932 55.2162 19.8035 55.1636 19.7204C54.9091 19.3092 53.5996 17.9245 51.4126 16.4109C49.6753 17.3646 46.964 18.8389 42.93 18.8564C41.9407 18.8586 41.717 18.7907 41.0436 18.7951C39.0737 18.8017 38.5824 19.6416 38.51 21.3631C38.499 21.689 38.4924 22.1265 38.4727 22.6055C38.4113 24.1454 38.2292 26.2694 37.0491 27.689Z" fill="white"/>
<path d="M58.1775 42.9306C56.6771 46.9773 54.7424 47.5 53.0841 47.5C51.9127 47.5 51.0506 47.0823 50.9607 47.0363L51.5859 45.1421C51.6363 45.1683 52.2703 45.5074 52.9744 45.5074C54.2927 45.5074 55.1197 44.7768 55.8502 42.491C55.8502 42.491 51.3709 32.7681 51.3182 32.6478C51.3994 32.6216 51.9368 32.4575 52.5466 32.4575C53.9966 32.4575 54.3169 33.3609 54.6898 34.2621C55.0056 35.0189 57.0698 39.9843 57.0698 39.9843H57.1378L59.5288 32.6478H62.0097L58.1775 42.9306Z" fill="white"/>
<path d="M90.9802 42.4449L87.5144 37.4227L90.9078 32.5055H87.9816L85.6191 36.1103C84.983 35.115 84.3819 34.1744 84.1977 33.8835C83.7239 33.1595 83.2983 32.4267 82.2169 32.4486C82.0743 32.453 81.923 32.4661 81.7606 32.4989C81.1596 32.6083 80.6616 32.8686 80.5871 32.9058C80.6244 32.967 82.2498 35.2616 83.805 37.4949L80.3896 42.4471H83.3115L85.6871 38.8292L88.0606 42.4449H90.9802V42.4449Z" fill="white"/>
<path d="M64.0235 35.8762V42.4602H66.5022V35.6159C66.6382 35.4912 67.52 34.6535 68.4961 34.6535C69.7706 34.6535 70.4331 35.5744 70.4331 36.773V42.458H72.9074V36.1562C72.9074 33.1639 70.5976 32.5011 69.31 32.5011C67.7613 32.5011 66.6557 33.4767 66.3289 33.7982C66.2236 33.3979 65.752 32.7198 64.6706 32.7198C64.2889 32.7198 63.7887 32.8336 63.7427 32.8445C63.8195 33.2164 64.0235 34.0979 64.0235 35.8762Z" fill="white"/>
<path d="M78.4353 29.6706C78.4353 30.4865 77.7531 31.1493 76.9086 31.1493C76.064 31.1493 75.3818 30.4865 75.3818 29.6706C75.3818 28.8504 76.064 28.1854 76.9086 28.1854C77.7531 28.1854 78.4353 28.8504 78.4353 29.6706Z" fill="white"/>
<path d="M78.1348 32.6432H75.678V42.447H78.1348V32.6432Z" fill="white"/>
<path d="M43.4061 33.7742C43.5794 33.6298 44.8429 32.4596 46.5999 32.4596C48.5237 32.4596 49.9451 33.4592 49.9451 35.8981V42.4602H47.3765V36.6003C47.3765 35.5219 46.7798 34.6841 45.6501 34.6841C44.5753 34.6841 43.6628 35.5285 43.4061 35.7428V42.4602H40.8572V27.4943C40.8572 27.4943 41.32 27.4943 41.3968 27.4943C42.6186 27.4943 43.4061 28.3801 43.4061 29.5613V33.7742V33.7742Z" fill="white"/>
</svg>
