<svg width="59" height="60" viewBox="0 0 59 60" fill="none" xmlns="http://www.w3.org/2000/svg">
<path d="M13.5177 30.4063H11.6123V32.796H13.5177V30.4063ZM5.31635 48.4523C8.05014 52.078 12.855 51.254 12.855 51.254C13.4349 46.1451 11.3638 44.497 11.3638 44.497C10.0383 47.2163 12.0266 50.43 12.0266 50.43C9.04424 47.7931 5.31635 48.4523 5.31635 48.4523ZM10.2869 20.6005L9.37561 19.7765C7.13887 20.2709 5.48203 22.2485 5.48203 22.2485C6.55898 19.7765 5.97909 17.4692 5.48203 16.2332L4.8193 15.6564C2.91393 19.282 4.98498 23.3197 4.98498 23.3197C8.05014 22.5781 9.54129 21.4245 10.2869 20.6005ZM16.5 53.726C16.4172 52.1604 16.0858 51.0068 15.7545 50.1004H13.9319C14.429 51.8308 15.5059 53.1492 15.5059 53.1492C12.1922 51.0068 8.54719 52.3252 8.54719 52.3252C11.8609 55.3741 16.5 53.726 16.5 53.726ZM23.2102 32.4664V33.3728H22.2161V34.444H23.1274V35.3504H22.2161V36.4216H23.2102V37.3281H21.222V32.3839L19.8137 37.3281H18.9853L17.577 32.3839H18.6539L19.2338 34.7736C19.3167 35.0208 19.3167 35.3504 19.3995 35.5976C19.4823 35.3504 19.4823 35.0208 19.5652 34.7736L20.1451 32.3839H23.2102V32.4664ZM24.4529 43.3434H23.3759L23.2102 42.5194H22.2161L22.0504 43.3434H21.0563L22.2161 38.3993H23.2102L24.4529 43.3434ZM23.3759 32.4664H24.37C25.0328 32.4664 26.1097 32.5488 26.1097 33.8672C26.1097 34.444 25.8612 34.856 25.447 35.1032L26.2754 37.3281H25.2813L24.4529 35.0208V37.3281H23.4588V32.4664H23.3759ZM26.5239 32.4664H27.518V37.4105H26.5239V32.4664ZM25.7783 43.4258C25.5298 43.4258 25.1984 43.3434 24.9499 43.1786V42.2722C25.1984 42.437 25.3641 42.5194 25.6955 42.5194C26.0269 42.5194 26.2754 42.2722 26.2754 41.9426C26.2754 41.5306 25.944 41.4482 25.6955 41.201C25.1156 40.7889 24.7842 40.4593 24.7842 39.7177C24.7842 38.9761 25.1984 38.2345 26.1097 38.2345C26.4411 38.2345 26.6896 38.3169 26.9381 38.4817V39.5529C26.7724 39.3881 26.5239 39.2233 26.1926 39.2233C25.8612 39.2233 25.6955 39.3881 25.6955 39.7177C25.6955 40.5417 27.1867 40.5417 27.1867 41.9426C27.1867 42.7666 26.6896 43.4258 25.7783 43.4258ZM20.8907 39.3881H20.1451V43.4258H19.151V39.3881H18.4054V38.4817H20.8907V39.3881V39.3881ZM16.003 26.7806V47.4635H26.2754C27.4352 47.4635 28.6778 48.3699 28.6778 48.3699V31.8895C22.4647 31.7247 21.1392 26.7806 21.1392 26.7806H16.003ZM39.9443 16.0684L36.8792 19.4469V24.803C36.8792 24.803 36.7963 25.7094 36.6307 26.1214H38.6189L44.335 20.4357L39.9443 16.0684ZM13.6006 41.6954H11.6952V44.085H13.6006V41.6954ZM16.6657 18.5404L20.6421 22.4133V19.3644L16.6657 15.4092V18.5404ZM13.6006 51.9132C13.8491 51.9132 14.0148 51.7484 14.0148 51.5012C14.0148 51.254 13.8491 51.0892 13.6006 51.0892C13.352 51.0892 13.1863 51.254 13.1863 51.5012C13.1035 51.666 13.352 51.9132 13.6006 51.9132ZM6.3933 20.0237C6.3933 20.2709 6.55898 20.4357 6.80751 20.4357C7.05603 20.4357 7.22172 20.2709 7.22172 20.0237C7.22172 19.7765 7.05603 19.6117 6.80751 19.6117C6.55898 19.6117 6.3933 19.7765 6.3933 20.0237ZM13.6006 48.6171C13.6006 48.8643 13.6834 48.6171 13.6006 48.6171L13.6834 45.6507L13.1863 46.1451C13.4349 46.9691 13.5177 47.9579 13.6006 48.6171ZM20.725 23.979V23.4021L17.8255 20.5181H10.9496L14.8432 24.0614H20.725V23.979ZM5.73056 15.6564C5.73056 15.6564 5.48203 14.0907 7.13887 11.7011H1.50561C1.50561 11.7011 1.75414 12.2779 5.73056 15.6564ZM0.842877 24.391C-0.151228 28.7583 3.57667 31.8895 3.57667 31.8895C7.88445 29.0879 7.80161 26.451 7.80161 26.451C4.90214 27.1926 3.65951 30.8183 3.65951 30.8183C3.82519 26.863 0.842877 24.391 0.842877 24.391ZM4.2394 26.451C5.15066 22.5781 2.6654 19.6941 2.6654 19.6941C0.925719 23.8142 3.99088 27.6046 3.99088 27.6046C8.71287 25.5446 9.12708 22.9901 9.12708 22.9901C6.06193 23.1549 4.2394 26.451 4.2394 26.451ZM4.57077 28.2639C4.57077 28.0166 4.40509 27.8518 4.15656 27.8518C3.90803 27.8518 3.74235 28.0166 3.74235 28.2639C3.74235 28.5111 3.90803 28.6759 4.15656 28.6759C4.40509 28.7583 4.57077 28.5111 4.57077 28.2639ZM27.6009 50.9244H30.5832C30.5832 50.9244 30.7489 49.6059 31.5773 49.6059H43.8379V28.099L42.5953 26.7806V48.1227H31.6601C31.6601 48.1227 30.169 48.2875 29.0092 49.6883C29.0092 49.6883 28.0979 48.3699 26.1926 48.2051H15.4231V27.0278L14.0976 28.3463V49.6059H26.1097C26.1097 49.6059 27.6009 49.6883 27.6009 50.9244ZM8.29866 11.3715C5.23351 14.6675 6.89035 19.1996 6.89035 19.1996C12.0266 18.87 13.2692 16.5628 13.2692 16.5628C10.3697 15.7388 7.47024 18.2108 7.47024 18.2108C9.70698 14.9971 8.29866 11.3715 8.29866 11.3715ZM22.796 40.4593L22.7132 39.7177L22.6303 40.4593L22.3818 41.7778H23.0446L22.796 40.4593ZM51.2109 49.6883C51.9564 49.1939 52.702 48.6171 53.2819 47.7107C53.2819 47.7107 51.6251 47.4635 49.7197 48.1227L51.2109 49.6883ZM54.3589 30.2415C54.3589 30.2415 53.0334 26.6982 50.1339 26.039C50.1339 26.039 50.1339 28.6759 54.5245 31.3951C54.5245 31.3951 58.1696 28.1815 57.0926 23.8142C56.927 23.7317 54.0275 26.2862 54.3589 30.2415ZM48.8913 40.7889C48.8913 40.7889 47.1516 42.849 48.7256 47.7107C48.7256 47.7107 53.6133 47.5459 55.6015 43.5082C55.6015 43.5082 51.7908 43.5906 49.3883 46.8043C49.3883 46.7219 50.631 43.1786 48.8913 40.7889ZM54.1932 34.6088C54.1932 34.6088 53.4476 30.9007 50.7138 29.6647C50.7138 29.6647 50.2168 32.3015 54.0275 35.68C54.0275 35.68 58.1696 33.1256 57.8382 28.6759C57.9211 28.6759 54.6074 30.6535 54.1932 34.6088ZM50.7966 33.4552C50.7966 33.4552 49.8854 35.9272 53.0334 39.9649C53.0334 39.9649 57.5897 38.1521 58.0039 33.7024C58.0039 33.7024 54.4417 35.1032 53.2819 38.8937C53.3648 38.8937 53.2819 35.1032 50.7966 33.4552ZM53.6961 36.8337C53.9446 36.8337 54.1103 36.6688 54.1103 36.4216C54.1103 36.1744 53.9446 36.0096 53.6961 36.0096C53.4476 36.0096 53.2819 36.1744 53.2819 36.4216C53.1991 36.5864 53.4476 36.8337 53.6961 36.8337ZM51.0452 44.497C51.0452 44.2498 50.8795 44.085 50.631 44.085C50.3824 44.085 50.2168 44.2498 50.2168 44.497C50.2168 44.7442 50.3824 44.909 50.631 44.909C50.8795 44.909 51.0452 44.7442 51.0452 44.497ZM13.0207 17.7988C12.855 17.9636 11.6123 19.0348 9.70698 19.282L10.3697 19.8589H17.1628L15.0917 17.7988L14.0148 16.7276C14.0148 16.7276 13.2692 17.7164 13.0207 17.7988ZM39.3644 39.7177L39.2816 40.4593L39.0331 41.7778H39.7787L39.5301 40.4593L39.3644 39.7177ZM25.1984 33.8672C25.1984 33.5376 25.0328 33.208 24.5357 33.2904H24.37V34.6088H24.5357C25.0328 34.6088 25.1984 34.2792 25.1984 33.8672ZM34.8081 36.5864C35.3052 36.5864 35.3052 36.2568 35.3052 35.8448V32.4664H36.2993V36.092C36.2993 36.5864 36.2164 37.4929 34.8081 37.4929C33.8969 37.4929 33.317 37.0809 33.317 36.1744V32.5488H34.3111V35.7624C34.3939 36.092 34.3111 36.5864 34.8081 36.5864ZM37.3762 38.4817V39.3881H36.3821V40.4593H37.2934V41.3658H36.3821V42.437H37.3762V43.3434H35.388V38.3993H37.3762V38.4817ZM37.1277 32.4664H38.2047L38.4532 33.1256C38.536 33.3728 38.6189 33.62 38.7017 33.8672C38.7845 33.62 38.8674 33.3728 38.9502 33.1256L39.2816 32.4664H40.3585L39.2816 34.856L40.4414 37.4105H39.2816L38.9502 36.6688C38.8674 36.4216 38.7845 36.1744 38.7017 35.9272C38.6189 36.1744 38.536 36.4216 38.4532 36.6688L38.2047 37.4105H37.1277L38.2047 34.856L37.1277 32.4664ZM40.11 43.4258L39.9443 42.6018H38.9502L38.7845 43.4258H37.7904L38.9502 38.4817H39.9443L41.1041 43.4258H40.11ZM33.814 43.4258L33.5655 39.8825L33.3998 41.1186L32.9856 43.4258H32.24L31.743 41.0361L31.5773 39.9649V39.8825L31.4116 43.4258H30.3347L30.7489 38.4817H32.0743L32.5714 41.3658L32.9856 38.4817H34.3111L34.8081 43.4258H33.814ZM30.666 32.4664H31.6601V36.504H32.6542V37.4105H30.666V32.4664ZM29.4234 31.7247V48.3699C29.4234 48.3699 30.3347 47.4635 31.6601 47.4635H42.0982V26.7806H36.465C36.465 26.7806 34.891 31.6423 29.4234 31.7247ZM16.0858 14.9147C16.0858 14.9147 15.6716 15.574 13.9319 15.9036L16.0858 17.8812V14.9147ZM25.0328 13.0195V10.7947H31.9087V13.9259H34.1454V16.1508H31.9087V17.1396H34.1454V19.6117H31.9087V26.9454H30.0033L27.3523 24.3086L24.9499 26.6982L23.2102 24.9678L27.1867 21.0125L29.2577 23.0725V13.0195H25.0328ZM21.4706 23.4845C21.4706 28.6759 24.7842 31.0655 28.7607 31.0655C32.8199 31.0655 36.1336 28.6759 36.1336 23.4845C36.1336 18.2932 36.1336 8.6522 36.1336 8.6522H21.4706C21.4706 8.6522 21.4706 18.2932 21.4706 23.4845ZM15.2574 24.4734L16.9971 26.039H20.9735C20.8078 25.7094 20.8078 24.5558 20.8078 24.5558L15.2574 24.4734ZM46.9859 44.085C46.9859 44.085 46.6545 44.4146 46.5717 44.909L47.483 45.8979C47.483 45.321 47.3173 44.7442 46.9859 44.085ZM9.62414 48.1227C11.1153 43.1786 9.37561 41.201 9.37561 41.201C7.63593 43.5906 8.9614 47.2163 8.9614 47.2163C6.55898 44.085 2.6654 44.085 2.6654 44.085C4.8193 48.1227 9.62414 48.1227 9.62414 48.1227ZM9.45845 15.6564C14.5947 16.2332 16.2515 14.1731 16.2515 14.1731C13.5177 12.8547 10.2869 14.8323 10.2869 14.8323C13.0207 11.9483 12.2751 8.15779 12.2751 8.15779C8.63003 10.8771 9.45845 15.6564 9.45845 15.6564ZM20.1451 51.5836C20.3936 54.5501 23.7073 56.4453 23.7073 56.4453C19.8137 55.5389 16.9142 58.0933 16.9142 58.0933C21.0563 59.8238 24.8671 56.7749 24.8671 56.7749C22.7132 51.9956 20.1451 51.5836 20.1451 51.5836ZM7.05603 44.5794C9.37561 39.9649 7.9673 37.7401 7.9673 37.7401C5.8134 39.8001 6.55898 43.5906 6.55898 43.5906C4.73645 40.0473 0.925719 39.3881 0.925719 39.3881C2.25119 43.673 7.05603 44.5794 7.05603 44.5794ZM17.4113 50.1004H16.7486C16.7486 52.902 19.3995 55.1269 19.3995 55.1269C15.7545 53.5612 12.4408 55.5389 12.4408 55.5389C16.2515 58.0109 20.4764 55.5389 20.4764 55.5389C19.648 52.1604 18.2397 50.6772 17.4113 50.1004ZM7.9673 52.2428C7.9673 52.2428 8.63003 51.8308 9.70698 51.666L8.54719 51.4188L8.46435 51.5836C8.54719 51.5012 8.54719 51.4188 8.54719 51.4188L3.57667 56.6101C3.57667 56.6101 2.99677 57.4341 3.57667 57.9285C3.57667 57.9285 4.07372 58.3405 4.73645 57.8461L9.62414 53.6436C9.04424 53.3964 7.9673 52.49 7.9673 52.2428ZM5.15066 40.5417C8.21582 36.4216 7.22172 33.9496 7.22172 33.9496C4.73645 35.68 4.8193 39.4705 4.8193 39.4705C3.65951 35.68 0.0144559 34.444 0.0144559 34.444C0.59435 38.8937 5.15066 40.5417 5.15066 40.5417ZM7.71877 11.1243L1.83698 5.27372C1.83698 5.27372 -0.648281 7.00416 1.25709 11.1243H7.71877ZM10.4526 8.98181L6.97319 5.52093C4.8193 3.37848 2.25119 4.77931 2.25119 4.77931L9.12708 11.5363C9.54129 9.80583 10.4526 8.98181 10.4526 8.98181ZM3.99088 36.9161C3.99088 37.1633 4.15656 37.3281 4.40509 37.3281C4.65361 37.3281 4.8193 37.1633 4.8193 36.9161C4.8193 36.6688 4.65361 36.504 4.40509 36.504C4.2394 36.504 3.99088 36.6688 3.99088 36.9161ZM3.99088 36.3392C7.71877 32.796 7.22172 30.2415 7.22172 30.2415C4.48793 31.4775 3.90803 35.1856 3.90803 35.1856C3.41098 31.2303 0.0144559 29.3351 0.0144559 29.3351C-0.23407 33.8672 3.99088 36.3392 3.99088 36.3392ZM7.30456 44.9914C7.30456 45.2386 7.47024 45.4034 7.71877 45.4034C7.9673 45.4034 8.13298 45.2386 8.13298 44.9914C8.13298 44.7442 7.9673 44.497 7.71877 44.497C7.47024 44.497 7.30456 44.7442 7.30456 44.9914ZM44.9149 51.5012C45.1634 51.5012 45.3291 51.3364 45.3291 51.0892C45.3291 50.842 45.1634 50.6772 44.9149 50.6772C44.6663 50.6772 44.5007 50.842 44.5007 51.0892C44.4178 51.3364 44.6663 51.5012 44.9149 51.5012ZM47.3173 50.9244L45.7433 49.6059C45.7433 50.018 45.8261 50.43 45.909 50.842C45.909 50.9244 46.406 51.0068 47.3173 50.9244ZM51.7079 43.0138C51.7079 43.0138 52.2878 39.3057 50.1339 37.2457C50.1339 37.2457 48.8084 39.5529 51.2109 44.085C51.2109 44.085 56.0157 43.0962 57.2583 38.8113C57.2583 38.7289 53.4476 39.4705 51.7079 43.0138ZM21.7191 55.4565C21.7191 55.2093 21.5534 55.0445 21.3049 55.0445C21.0563 55.0445 20.8907 55.2093 20.8907 55.4565C20.8907 55.7037 21.0563 55.8685 21.3049 55.8685C21.5534 55.9509 21.7191 55.7037 21.7191 55.4565ZM43.0095 52.8196C43.0095 52.8196 44.0036 51.666 44.5007 50.018H42.6781C42.4296 50.9244 42.1811 52.078 42.0982 53.4788C42.0982 53.4788 46.0747 54.7973 49.2226 52.49L47.98 51.5012C46.6545 51.4188 44.7492 51.5836 43.0095 52.8196ZM44.335 45.5683V47.9579L55.0216 56.7749H57.1755L46.3232 45.5683H44.335ZM28.595 55.8685V57.0221C28.0979 56.1981 26.0269 53.2316 23.7901 53.1492C23.7901 53.1492 24.5357 55.7861 28.0151 57.3517C28.0151 57.3517 23.7073 57.5989 21.9676 59.9886C21.9676 59.9886 25.6955 60.3182 28.595 57.4341V59.247H29.7548V57.2693V55.9509H28.595V55.8685ZM30.5003 57.1869C33.8969 55.6213 34.6424 52.9844 34.6424 52.9844C31.9915 53.1492 29.7548 57.1045 29.7548 57.1045C32.7371 60.1534 36.5478 59.7414 36.5478 59.7414C34.8081 57.4341 30.5003 57.1869 30.5003 57.1869ZM34.891 56.2805C34.891 56.2805 38.2047 54.3853 38.3703 51.3364C38.3703 51.3364 35.8022 51.8308 33.814 56.5277C33.814 56.5277 37.6248 59.5766 41.7669 57.6813C41.7669 57.7637 38.7845 55.2917 34.891 56.2805ZM39.1159 54.8797C39.1159 54.8797 41.684 52.7372 41.684 50.018H40.7728C39.9443 50.7596 38.7845 52.2428 38.1218 55.3741C38.1218 55.3741 42.4296 57.6813 46.1575 55.1269C46.1575 55.1269 42.761 53.314 39.1159 54.8797ZM36.8792 55.2917C36.8792 55.5389 37.0449 55.7037 37.2934 55.7037C37.5419 55.7037 37.7076 55.5389 37.7076 55.2917C37.7076 55.0445 37.5419 54.8797 37.2934 54.8797C37.0449 54.8797 36.8792 55.0445 36.8792 55.2917ZM52.7849 22.7429C52.7849 22.7429 55.1044 18.458 52.5363 14.7499C52.5363 14.7499 50.631 18.1284 52.2878 21.7541C52.2878 21.7541 49.8025 18.87 46.8202 19.1996C46.8202 19.1996 47.7315 21.6717 52.7849 22.7429ZM41.8497 12.7723L43.1752 11.3715C42.0154 11.1243 39.8615 10.7122 38.039 12.0307C38.1218 11.9483 39.0331 13.0195 41.8497 12.7723ZM50.8795 19.9413C51.128 19.9413 51.2937 19.7765 51.2937 19.5293C51.2937 19.282 51.128 19.1172 50.8795 19.1172C50.631 19.1172 50.4653 19.282 50.4653 19.5293C50.4653 19.7765 50.631 19.9413 50.8795 19.9413ZM53.9446 26.9454C53.9446 26.9454 57.0098 23.1549 55.1044 19.0348C55.1044 19.0348 52.702 22.0013 53.6133 25.8742C53.6133 25.8742 51.7079 22.5781 48.6428 22.4133C48.7256 22.4133 49.2226 25.0502 53.9446 26.9454ZM47.4001 5.52093C48.8084 6.18014 49.9682 5.52093 49.9682 5.52093C51.5422 4.69691 52.702 5.76813 52.702 5.76813C53.779 6.59215 53.6133 7.74578 53.6133 7.74578C53.6133 8.5698 53.3648 8.6522 53.3648 8.6522C52.8677 8.98181 52.9505 8.40499 52.9505 8.40499L53.0334 7.99298C53.2819 6.09774 51.5422 5.76813 51.5422 5.76813C49.6369 5.43853 49.2226 7.16897 49.2226 7.16897C49.1398 7.66338 49.057 8.07539 49.1398 8.40499L46.8202 6.09774L46.9031 8.07539L52.1221 13.2667H53.9446L52.0393 11.3715C53.0334 11.7011 53.9446 11.7011 53.9446 11.7011C56.5956 11.5363 56.8441 8.98181 56.8441 8.98181C57.5069 6.34495 55.0216 4.2025 55.0216 4.2025C53.3648 2.80166 50.7966 2.63686 50.7966 2.63686C47.2344 2.30725 45.9918 0 45.9918 0C45.5776 1.07122 45.6604 2.55446 45.6604 2.55446C45.909 4.94411 47.4001 5.52093 47.4001 5.52093ZM53.3648 27.687C53.3648 27.9342 53.5304 28.099 53.779 28.099C54.0275 28.099 54.1932 27.9342 54.1932 27.687C54.1932 27.4398 54.0275 27.275 53.779 27.275C53.5304 27.275 53.3648 27.4398 53.3648 27.687ZM43.5065 10.9595L44.5835 9.88823C44.0864 8.32259 43.1752 6.42735 40.8556 5.27372C40.8556 5.27372 40.6899 8.6522 43.5065 10.9595ZM46.2403 41.9426H44.335V44.3322H46.2403V41.9426ZM47.7315 18.2932C48.5599 18.5404 49.554 18.7052 50.8795 18.7876C50.8795 18.7876 51.4594 17.1396 51.2109 15.0795L49.554 16.6452C49.7197 17.0572 49.9682 17.4692 50.2168 17.8812C50.2168 17.8812 49.8025 17.5516 49.057 17.1396L47.7315 18.2932ZM11.778 13.1843C11.778 13.4315 11.9437 13.5963 12.1922 13.5963C12.4408 13.5963 12.6065 13.4315 12.6065 13.1843C12.6065 12.9371 12.4408 12.7723 12.1922 12.7723C11.9437 12.7723 11.778 12.9371 11.778 13.1843ZM51.3765 13.7611L46.4889 8.89941L42.0982 13.5963L46.7374 18.2108L51.3765 13.7611ZM41.0213 13.9259L40.0272 15.0795L45.3291 20.3533L46.406 19.282L41.0213 13.9259ZM46.1575 30.2415H44.2521V32.6312H46.1575V30.2415ZM23.4588 7.49857C23.4588 7.49857 24.9499 8.4874 27.6009 6.67455C27.6009 6.67455 24.37 5.35612 23.4588 7.49857ZM40.3585 9.14661C40.3585 9.14661 38.8674 8.7346 37.0449 9.31142V10.9595C38.2047 10.9595 39.3644 10.6298 41.4355 9.55862C41.4355 9.55862 40.4414 4.77931 36.1336 3.54328C36.0508 3.70809 36.7963 7.41617 40.3585 9.14661ZM20.8078 11.2891V9.64102C18.9853 9.06421 17.0799 9.47622 17.0799 9.47622C20.6421 7.66338 21.222 3.87289 21.222 3.87289C16.9142 5.19132 16.003 9.97063 16.003 9.97063C18.1569 10.9595 19.648 11.2067 20.8078 11.2891ZM19.4823 12.1955C16.9971 10.465 13.4349 11.7835 13.4349 11.7835C16.5829 9.39382 16.5829 5.60333 16.5829 5.60333C12.5236 7.66338 12.5236 12.5251 12.5236 12.5251C17.4941 13.9259 19.4823 12.1955 19.4823 12.1955ZM19.151 8.5698C19.151 8.817 19.3167 8.98181 19.5652 8.98181C19.8137 8.98181 19.9794 8.817 19.9794 8.5698C19.9794 8.32259 19.8137 8.15779 19.5652 8.15779C19.3995 8.15779 19.151 8.32259 19.151 8.5698ZM20.2279 8.15779L23.6244 8.07539C22.5475 7.41617 21.3877 7.49857 21.3877 7.49857C25.1984 6.34495 26.2754 2.96647 26.2754 2.96647C21.8019 3.54328 20.0622 8.07539 20.0622 8.07539C20.2279 8.07539 20.2279 8.07539 20.2279 8.15779ZM38.3703 8.32259C38.3703 8.07539 38.2047 7.91058 37.9561 7.91058C37.7076 7.91058 37.5419 8.07539 37.5419 8.32259C37.5419 8.5698 37.7076 8.7346 37.9561 8.7346C38.2047 8.817 38.3703 8.5698 38.3703 8.32259ZM35.9679 7.49857C35.9679 7.49857 34.8081 7.49857 33.7312 8.07539L37.1277 8.15779C37.2105 8.07539 37.2105 8.07539 37.2105 8.07539C37.2105 8.07539 35.5537 3.54328 30.9974 2.96647C31.0802 2.96647 32.1572 6.26255 35.9679 7.49857ZM28.6778 6.92176C29.0092 6.92176 29.2577 6.67455 29.2577 6.34495C29.2577 6.01534 29.0092 5.76813 28.6778 5.76813C28.3464 5.76813 28.0979 6.01534 28.0979 6.34495C28.0979 6.67455 28.3464 6.92176 28.6778 6.92176ZM33.9797 7.25137C32.9856 5.19132 29.8376 6.59215 29.8376 6.59215C32.4885 8.32259 33.9797 7.25137 33.9797 7.25137Z" fill="white"/>
</svg>
