<svg width="128" height="55" viewBox="0 0 128 55" fill="none" xmlns="http://www.w3.org/2000/svg">
<path fill-rule="evenodd" clip-rule="evenodd" d="M125.353 0.294768C124.895 0.100028 124.403 -0.000188733 123.906 2.66829e-07C123.158 0.000287267 122.428 0.228128 121.807 0.653938C121.187 1.07969 120.704 1.684 120.419 2.38973C120.37 2.51112 120.327 2.63459 120.291 2.75965H7.97327V1.08186C7.97279 0.847128 7.88175 0.620918 7.71812 0.453048C7.55428 0.284968 7.3303 0.189098 7.09578 0.188598H2.08242C1.84757 0.188598 1.62364 0.284238 1.45941 0.452388C1.29538 0.620318 1.20409 0.847318 1.20361 1.08237V6.22631C1.20409 6.46135 1.29538 6.68786 1.45941 6.85579C1.62364 7.02394 1.84757 7.11958 2.08242 7.11958H3.71094V32.832C3.27801 32.9381 2.86468 33.1225 2.49113 33.3785C1.87097 33.8037 1.38856 34.4072 1.10393 35.1122C0.819332 35.8171 0.744961 36.5925 0.889971 37.3404C1.03499 38.0883 1.39308 38.7762 1.91993 39.3168C2.44685 39.8573 3.11897 40.2262 3.85167 40.3758C4.5844 40.5253 5.34384 40.4485 6.03364 40.1553C6.72337 39.8622 7.31186 39.3663 7.72543 38.7313C7.93824 38.4046 8.0999 38.0484 8.20668 37.6758H120.522V39.3535C120.522 39.5883 120.613 39.8145 120.777 39.9824C120.941 40.1504 121.165 40.2463 121.399 40.2468H126.414C126.649 40.2463 126.872 40.1504 127.036 39.9824C127.2 39.8145 127.291 39.5878 127.291 39.353V34.211C127.291 33.9759 127.2 33.7492 127.037 33.5809C126.873 33.4125 126.649 33.3163 126.414 33.3158H124.784V7.62674C124.978 7.57931 125.169 7.516 125.355 7.43701C126.045 7.14355 126.634 6.64712 127.048 6.01149C127.462 5.37592 127.682 4.62936 127.682 3.86617C127.682 3.35921 127.585 2.85707 127.396 2.38839C127.207 1.9197 126.929 1.49345 126.579 1.13415C126.228 0.774828 125.812 0.489488 125.353 0.294768ZM7.97327 4.54719H120.192C120.196 4.57152 120.201 4.59583 120.206 4.62011C120.351 5.36876 120.709 6.05724 121.237 6.59818C121.73 7.10416 122.351 7.45981 123.029 7.6261V33.3158H121.399C121.164 33.3163 120.94 33.4125 120.776 33.5809C120.612 33.7492 120.522 33.9759 120.522 34.211V35.8882H8.29664C8.15924 35.1258 7.79972 34.4169 7.25673 33.8598C6.76036 33.3506 6.13907 32.9974 5.46592 32.8323V7.11958H7.09631C7.33084 7.11908 7.55428 7.02321 7.71812 6.85513C7.88175 6.68725 7.97279 6.46052 7.97327 6.2258V4.54719ZM123.907 1.78754C124.305 1.78734 124.694 1.90819 125.027 2.13561C125.359 2.36311 125.619 2.68726 125.773 3.0678C125.926 3.44839 125.967 3.8676 125.889 4.27213C125.81 4.67664 125.617 5.04739 125.334 5.33782C125.051 5.62818 124.692 5.82521 124.301 5.905C123.91 5.98479 123.506 5.94402 123.137 5.78756C122.769 5.63106 122.453 5.36554 122.23 5.02357C122.007 4.68158 121.888 4.27885 121.888 3.86634C121.889 3.31339 122.103 2.7845 122.482 2.39529C122.861 2.00631 123.374 1.78853 123.907 1.78754ZM2.95991 5.33877V1.97614H6.21829V5.33877H2.95991ZM4.58867 34.5135C4.98596 34.5133 5.37494 34.6339 5.70644 34.8609C6.03802 35.088 6.29747 35.4115 6.451 35.7913C6.60455 36.1711 6.64494 36.5895 6.5668 36.9933C6.48868 37.397 6.29575 37.767 6.01338 38.0569C5.73108 38.3467 5.37213 38.5433 4.98231 38.623C4.59253 38.7026 4.18842 38.6619 3.8208 38.5058C3.45311 38.3496 3.13779 38.0846 2.91547 37.7433C2.6931 37.4019 2.57404 36.9999 2.57404 36.5881C2.57404 36.0361 2.78777 35.5079 3.16629 35.1193C3.5446 34.731 4.05635 34.5138 4.58867 34.5135ZM122.277 35.1047V38.4593H125.536V35.1047H122.277Z" fill="black"/>
<path fill-rule="evenodd" clip-rule="evenodd" d="M56.7943 14.8999V32.4279H58.7943V27.0991C59.5855 27.2598 60.4483 27.3399 61.3823 27.3399C63.2689 27.3399 64.6401 26.8563 65.467 25.8641C66.3058 24.8609 66.7143 23.2316 66.7143 20.9999C66.7143 18.7711 66.3706 17.1525 65.6638 16.166C64.952 15.1565 63.8128 14.6599 62.2703 14.6599C61.1144 14.6599 59.9473 15.0046 58.7703 15.6884V14.8999H56.7943ZM64.6903 20.9759C64.6903 22.6342 64.4263 23.8078 63.9171 24.5177L63.9162 24.5188C63.4303 25.2173 62.5651 25.5799 61.2863 25.5799C60.7168 25.5799 59.8871 25.4972 58.7943 25.3302V17.3883L59.196 17.1769C59.5084 17.0208 59.9337 16.863 60.4741 16.704C61.0269 16.5461 61.5374 16.4679 62.0063 16.4679C62.8879 16.4679 63.543 16.8057 63.9868 17.479L63.9877 17.4803C64.4498 18.1581 64.6903 19.316 64.6903 20.9759Z" fill="black"/>
<path fill-rule="evenodd" clip-rule="evenodd" d="M36.7318 27.0999H38.7318V17.3162L39.0856 17.1289C39.365 16.9893 39.7654 16.8476 40.2901 16.7044L40.292 16.7039C40.8278 16.5463 41.3463 16.4679 41.8478 16.4679C42.8878 16.4679 43.5185 16.7744 43.7979 17.3478L43.7993 17.3505C43.9514 17.6394 44.0694 18.07 44.1487 18.6495C44.2279 19.2275 44.2678 19.9466 44.2678 20.8079V27.0999H46.2678V20.7599C46.2678 19.8544 46.2418 19.1072 46.1894 18.5191C46.1425 17.992 46.0739 17.586 45.9808 17.3074L46.3546 17.1303C46.6502 16.9903 47.0752 16.8482 47.6327 16.7048L47.6353 16.7041C48.1873 16.5464 48.722 16.4679 49.2398 16.4679C50.2625 16.4679 50.8955 16.7738 51.1908 17.3496L51.1913 17.3505C51.3436 17.6398 51.4615 18.0627 51.5408 18.6259C51.6199 19.1877 51.6598 19.8827 51.6598 20.7119V27.0999H53.6598V20.6639C53.6598 18.4395 53.3812 16.8768 52.8039 16.0017C52.2326 15.0954 51.1172 14.6599 49.5038 14.6599C48.8512 14.6599 48.0973 14.7903 47.2435 15.048C46.4463 15.278 45.7836 15.5457 45.2578 15.8522C44.6313 15.049 43.5722 14.6599 42.1118 14.6599C41.0022 14.6599 39.8671 14.9971 38.7078 15.6651V14.8999H36.7318V27.0999Z" fill="black"/>
<path fill-rule="evenodd" clip-rule="evenodd" d="M31.4818 14.8999V27.0999H33.4818V14.8999H31.4818Z" fill="black"/>
<path fill-rule="evenodd" clip-rule="evenodd" d="M31.4818 10.1001V12.3881H33.4818V10.1001H31.4818Z" fill="black"/>
<path fill-rule="evenodd" clip-rule="evenodd" d="M26.2318 14.8999V27.0999H28.2318V14.8999H26.2318Z" fill="black"/>
<path fill-rule="evenodd" clip-rule="evenodd" d="M26.2318 10.1001V12.3881H28.2318V10.1001H26.2318Z" fill="black"/>
<path fill-rule="evenodd" clip-rule="evenodd" d="M21.6755 23.7119C21.6755 24.3724 21.4399 24.8322 20.9797 25.1144C20.5223 25.3887 19.8397 25.5319 18.9195 25.5319C17.9992 25.5319 16.6291 25.3969 14.8062 25.125L14.6984 25.109L14.5901 26.8678L15.3991 27.0026C16.7466 27.2272 17.9204 27.3399 18.9195 27.3399C20.4493 27.3399 21.6259 27.0506 22.4343 26.4568C23.2667 25.8573 23.6755 24.919 23.6755 23.6639C23.6755 22.4211 23.3776 21.5407 22.7478 21.0642C22.1359 20.6011 21.1079 20.254 19.6806 20.0134C18.9703 19.8857 18.3893 19.7623 17.9369 19.6432C17.4835 19.5239 17.1662 19.4107 16.9777 19.3054C16.6151 19.0873 16.4275 18.7244 16.4275 18.1919C16.4275 17.6112 16.6337 17.1884 17.0387 16.906C17.4502 16.619 18.08 16.4679 18.9435 16.4679C19.9605 16.4679 21.355 16.5952 23.1292 16.8509L23.2399 16.8669L23.2941 15.1327L22.5371 14.9975L22.5345 14.9971C21.0599 14.7727 19.8304 14.6599 18.8475 14.6599C17.6002 14.6599 16.5468 14.9441 15.6949 15.5175C14.8466 16.0997 14.4275 16.9978 14.4275 18.1919C14.4275 19.3726 14.7264 20.2129 15.3565 20.6727C15.9685 21.1193 16.9883 21.4501 18.3998 21.6747C19.102 21.7864 19.6784 21.9018 20.13 22.0207C20.5836 22.14 20.904 22.2611 21.0991 22.3811L21.1015 22.3826C21.4735 22.5971 21.6755 23.0254 21.6755 23.7119Z" fill="black"/>
<path fill-rule="evenodd" clip-rule="evenodd" d="M105.462 27.1474L104.7 27.0659V9.66797H106.676V15.445C107.853 14.9227 108.996 14.66 110.104 14.66C111.738 14.66 112.904 15.1294 113.57 16.0944C114.246 17.0339 114.572 18.6698 114.572 20.976C114.572 23.286 114.165 24.941 113.324 25.9133C112.495 26.8754 110.977 27.34 108.808 27.34C108.132 27.34 107.016 27.2757 105.464 27.1477L105.462 27.1474ZM111.799 24.518C112.292 23.8246 112.548 22.6434 112.548 20.952C112.548 19.2575 112.347 18.0979 111.963 17.4511L111.962 17.4503C111.585 16.802 110.913 16.468 109.912 16.468C108.997 16.468 108.057 16.6415 107.09 16.9901L106.676 17.1349V25.4194C107.668 25.4946 108.369 25.532 108.784 25.532C110.346 25.532 111.333 25.1798 111.799 24.518Z" fill="black"/>
<path fill-rule="evenodd" clip-rule="evenodd" d="M99.3491 19.565V18.6239C99.3491 17.8183 99.1746 17.2669 98.8503 16.9427C98.5211 16.6134 98.0688 16.4439 97.4811 16.4439C96.2052 16.4439 94.8811 16.5237 93.5086 16.6833L93.5067 16.6835L92.6587 16.7655L92.5767 15.2068L92.6615 15.1899C94.426 14.837 95.9928 14.6599 97.3611 14.6599C98.7329 14.6599 99.7491 14.9742 100.384 15.6257C101.034 16.2761 101.349 17.283 101.349 18.6239V24.7638C101.372 25.0302 101.486 25.2386 101.693 25.3963C101.906 25.5576 102.223 25.6699 102.654 25.7247L102.746 25.7364L102.664 27.3399H102.569C101.32 27.3399 100.356 27.0314 99.6916 26.3987C98.2607 27.0256 96.8276 27.3399 95.3931 27.3399C94.27 27.3399 93.3998 27.022 92.7996 26.3718C92.201 25.7233 91.9091 24.7996 91.9091 23.6159C91.9091 22.4331 92.2088 21.545 92.8289 20.9748C93.4437 20.3935 94.3969 20.0455 95.671 19.9165L99.3491 19.565ZM98.8642 25.0815L99.3491 24.9129V21.1339L95.9065 21.4595C95.1989 21.5224 94.7072 21.7254 94.4111 22.0512C94.1136 22.3784 93.9571 22.8626 93.9571 23.5199C93.9571 24.2447 94.1071 24.7696 94.3902 25.1123C94.6702 25.4512 95.094 25.6279 95.6811 25.6279C96.7575 25.6279 97.8185 25.4459 98.8642 25.0815Z" fill="black"/>
<path fill-rule="evenodd" clip-rule="evenodd" d="M87.2664 9.66797V27.1H89.2664V9.66797H87.2664Z" fill="black"/>
<path fill-rule="evenodd" clip-rule="evenodd" d="M83.2562 25.4123L84.0575 25.3294L84.1122 26.9425L84.0231 26.955C82.1962 27.2114 80.6313 27.3399 79.3292 27.3399C77.5832 27.3399 76.322 26.8382 75.5762 25.8107C74.8382 24.7775 74.4772 23.1916 74.4772 21.0719C74.4772 18.9574 74.8968 17.353 75.7529 16.2757C76.6124 15.1941 77.8989 14.6599 79.5932 14.6599C81.2277 14.6599 82.4673 15.1217 83.2921 16.0617C84.1157 16.9844 84.5172 18.4298 84.5172 20.3759V20.383L84.4144 21.8439H76.5016C76.5135 23.1119 76.752 24.037 77.2012 24.6359C77.6545 25.2404 78.4489 25.5559 79.6172 25.5559C80.8141 25.5559 82.0271 25.5081 83.2562 25.4123ZM81.8177 17.2446C81.3794 16.6703 80.6473 16.3719 79.5932 16.3719C78.5587 16.3719 77.7901 16.6844 77.2698 17.2962C76.7761 17.8951 76.5063 18.8578 76.4788 20.2039H82.5168C82.5061 18.7909 82.2663 17.8129 81.8187 17.2459L81.8177 17.2446Z" fill="black"/>
<path fill-rule="evenodd" clip-rule="evenodd" d="M69.5945 9.66797V27.1H71.5945V9.66797H69.5945Z" fill="black"/>
<path d="M92.5018 51.7917V52.8875H83.5536V51.7917H87.2919V49.5789H88.6561V51.7917H92.5018ZM88.6991 45.5398C88.6991 46.9363 89.9559 48.408 92.1903 48.7517L91.6102 49.8904C89.8915 49.5789 88.6132 48.6604 87.9686 47.4412C87.3241 48.655 86.0565 49.5842 84.3485 49.8904L83.7684 48.7517C85.9813 48.408 87.2274 46.9255 87.2382 45.5398V44.8416H88.6991V45.5398Z" fill="black"/>
<path d="M81.9208 44.8523V45.7332C81.9208 46.6462 81.9208 47.6453 81.6737 49.0095H82.9628V50.116H79.1493V54.0691H77.7743V50.116H74.0468V49.0095H80.288C80.535 47.7473 80.5565 46.7913 80.5565 45.948H75.0673V44.8523H81.9208Z" fill="black"/>
<path d="M72.7792 44.2937V51.4373H71.4149V49.1169H69.1806C68.7079 49.6165 68.0258 49.9226 67.2684 49.9226C65.786 49.9226 64.6581 48.8484 64.6688 47.3982C64.6581 45.9265 65.786 44.863 67.2684 44.8523C68.0258 44.8577 68.7025 45.1584 69.1806 45.658H71.4149V44.2937H72.7792ZM73.0155 52.7908V53.8865H66.2909V50.7175H67.6659V52.7908H73.0155ZM67.2684 46.0769C66.5058 46.0769 65.9579 46.571 65.9686 47.3982C65.9579 48.2146 66.5058 48.7087 67.2684 48.7087C67.9882 48.7087 68.5468 48.2146 68.5468 47.3982C68.5468 46.571 67.9882 46.0769 67.2684 46.0769ZM69.7714 46.7537C69.8197 46.9578 69.8466 47.1726 69.8466 47.3982C69.8466 47.613 69.8197 47.8225 69.7714 48.0212H71.4149V46.7537H69.7714Z" fill="black"/>
<path d="M62.7889 44.283V46.6892H64.1102V47.8386H62.7889V50.1804H61.4139V44.283H62.7889ZM62.7889 50.6101V53.9509H56.3973V50.6101H62.7889ZM57.7509 51.6843V52.8552H61.4354V51.6843H57.7509ZM60.8339 45.1638V46.2488H55.0331V45.1638H57.2567V44.2292H58.621V45.1638H60.8339ZM57.9335 46.5496C59.3514 46.5496 60.3397 47.2693 60.3397 48.3005C60.3397 49.364 59.3514 50.073 57.9335 50.073C56.494 50.073 55.5057 49.364 55.5057 48.3005C55.5057 47.2693 56.494 46.5496 57.9335 46.5496ZM57.9335 47.5808C57.2782 47.5808 56.8378 47.8386 56.8485 48.3005C56.8378 48.7947 57.2782 49.0632 57.9335 49.0632C58.5887 49.0632 59.0399 48.7947 59.0399 48.3005C59.0399 47.8386 58.5887 47.5808 57.9335 47.5808Z" fill="black"/>
<path d="M50.6932 44.8523C50.6932 45.9373 51.8427 47.1511 53.9911 47.4412L53.4755 48.5261C51.8265 48.2844 50.6127 47.5271 49.995 46.5173C49.3612 47.5378 48.142 48.3005 46.493 48.5476L45.9882 47.4734C48.1259 47.1726 49.2753 45.9802 49.286 44.8523V44.53H50.6932V44.8523ZM54.4637 49.0847V50.1804H50.7792V51.8669H49.4257V50.1804H45.5155V49.0847H54.4637ZM53.4755 52.7908V53.8865H46.5682V51.0183H47.9325V52.7908H53.4755Z" fill="black"/>
<path d="M43.7753 44.283V46.947H45.0966V48.075H43.7753V51.3513H42.4003V44.283H43.7753ZM40.8104 45.0671V46.1628H37.7704V48.6335C39.5375 48.6228 40.5096 48.5691 41.6053 48.3328L41.745 49.4285C40.5204 49.6863 39.3925 49.74 37.2225 49.74H36.3954V45.0671H40.8104ZM44.1298 52.7908V53.8865H37.4374V50.5994H38.8016V52.7908H44.1298Z" fill="black"/>
<path fill-rule="evenodd" clip-rule="evenodd" d="M92.5019 51.7919H88.6562V49.579H87.2919V51.7919H83.5536V52.8876H92.5019V51.7919ZM87.1919 51.6919H83.4536V52.9876H92.6019V51.6919H88.7561V49.479H87.1919V51.6919ZM92.0867 48.735C89.9171 48.3623 88.6991 46.9147 88.6991 45.5399V44.8417H87.2382V45.5399C87.2276 46.9039 86.0202 48.3616 83.872 48.7348C83.8377 48.7408 83.8032 48.7465 83.7685 48.7519L84.3485 49.8905C86.0072 49.5932 87.2506 48.7083 87.9113 47.5457C87.9309 47.5111 87.9501 47.4763 87.9687 47.4413C87.9872 47.4764 88.0063 47.5112 88.0258 47.5458C88.6871 48.7129 89.9409 49.588 91.6103 49.8905L92.1903 48.7519C92.1555 48.7465 92.121 48.7409 92.0867 48.735ZM87.9685 47.6466C87.2844 48.8123 86.0263 49.6914 84.3662 49.989L84.2931 50.0021L83.6167 48.6742L83.7531 48.653C85.9312 48.3147 87.1279 46.8633 87.1382 45.5392V44.7417H88.7991V45.5399C88.7991 46.8732 90.0048 48.3144 92.2055 48.653L92.3422 48.674L91.6656 50.0022L91.5924 49.9889C89.9228 49.6863 88.6537 48.8172 87.9685 47.6466Z" fill="black"/>
<path fill-rule="evenodd" clip-rule="evenodd" d="M81.9208 45.7333V44.8524H75.0673V45.9481H80.5565C80.5565 45.9813 80.5565 46.0146 80.5564 46.0481C80.5545 46.8671 80.5253 47.7971 80.288 49.0097H74.0468V50.1161H77.7743V54.0692H79.1493V50.1161H82.9628V49.0097H81.6737C81.6798 48.9761 81.6857 48.9428 81.6915 48.9097C81.9208 47.5963 81.9208 46.6239 81.9208 45.7333ZM81.793 48.9097C82.0208 47.5965 82.0208 46.6217 82.0208 45.7343V44.7524H74.9673V46.0481H80.4564C80.4546 46.8457 80.4267 47.7454 80.2054 48.9097H73.9468V50.2161H77.6743V54.1692H79.2493V50.2161H83.0628V48.9097H81.793Z" fill="black"/>
<path fill-rule="evenodd" clip-rule="evenodd" d="M72.8792 44.1938V51.5374H71.3149V49.2171H69.2231C68.7328 49.7182 68.0371 50.0228 67.2684 50.0228C65.7348 50.0228 64.558 48.9077 64.5688 47.3983C64.558 45.8675 65.7348 44.7636 67.2677 44.7524L67.2692 44.7524C68.0374 44.7579 68.7276 45.0573 69.2228 45.5581H71.3149V44.1938H72.8792ZM71.4149 45.6581H69.1806C68.7025 45.1586 68.0258 44.8578 67.2684 44.8524C65.786 44.8632 64.6581 45.9267 64.6688 47.3983C64.6581 48.8485 65.786 49.9228 67.2684 49.9228C68.0258 49.9228 68.7079 49.6166 69.1806 49.1171H71.4149V51.4374H72.7792V44.2938H71.4149V45.6581ZM73.1155 52.6909V53.9866H66.1909V50.6177H67.7659V52.6909H73.1155ZM66.0686 47.397L66.0687 47.3997C66.0636 47.7844 66.1896 48.0843 66.3984 48.2882C66.6077 48.4927 66.9087 48.6089 67.2684 48.6089C67.6052 48.6089 67.8986 48.4936 68.1074 48.2884C68.3158 48.0837 68.4468 47.7828 68.4468 47.3983C68.4468 47.0081 68.3155 46.7045 68.1072 46.4986C67.8985 46.2923 67.6052 46.1771 67.2684 46.1771C66.9088 46.1771 66.6078 46.2933 66.3986 46.4988C66.1899 46.7039 66.0636 47.0066 66.0686 47.397ZM69.895 46.8538C69.9284 47.0281 69.9466 47.2096 69.9466 47.3983C69.9466 47.5773 69.9286 47.7526 69.8956 47.9214H71.3149V46.8538H69.895ZM69.7931 46.8538C69.8277 47.0278 69.8466 47.2093 69.8466 47.3983C69.8466 47.5775 69.8279 47.7528 69.7937 47.9214C69.7869 47.955 69.7794 47.9883 69.7714 48.0214H71.4149V46.7538H69.7714C69.7792 46.7869 69.7865 46.8202 69.7931 46.8538ZM73.0155 52.7909H67.6659V50.7177H66.2909V53.8866H73.0155V52.7909ZM65.9686 47.3983C65.9579 46.5712 66.5057 46.0771 67.2684 46.0771C67.9882 46.0771 68.5468 46.5712 68.5468 47.3983C68.5468 48.2147 67.9882 48.7089 67.2684 48.7089C66.5057 48.7089 65.9579 48.2147 65.9686 47.3983Z" fill="black"/>
<path fill-rule="evenodd" clip-rule="evenodd" d="M62.889 44.1831V46.5894H64.2103V47.9388H62.889V50.2806H61.314V44.1831H62.889ZM62.789 47.8388H64.1103V46.6894H62.789V44.2831H61.414V50.1806H62.789V47.8388ZM62.889 50.5103V54.0511H56.2974V50.5103H62.889ZM60.9339 45.064V46.3489H54.9331V45.064H57.1567V44.1294H58.721V45.064H60.9339ZM58.621 45.164V44.2294H57.2567V45.164H55.0331V46.2489H60.8339V45.164H58.621ZM56.9485 48.3029C56.9439 48.5146 57.0336 48.6739 57.1973 48.7845C57.3656 48.8983 57.6174 48.9634 57.9335 48.9634C58.2494 48.9634 58.5045 48.8983 58.6772 48.784C58.8457 48.6724 58.9399 48.5122 58.9399 48.3007C58.9399 48.1082 58.8485 47.9585 58.6793 47.8523C58.506 47.7435 58.25 47.681 57.9335 47.681C57.6169 47.681 57.3641 47.7436 57.1952 47.8518C57.031 47.9571 56.944 48.1057 56.9485 48.2984L56.9485 48.3029ZM57.7509 52.8554V51.6845H61.4354V52.8554H57.7509ZM61.3354 52.7554V51.7845H57.8509V52.7554H61.3354ZM59.7272 46.9576C60.1743 47.2831 60.4397 47.7495 60.4397 48.3007C60.4397 48.8671 60.1751 49.3391 59.7274 49.6664C59.2818 49.9921 58.658 50.1731 57.9335 50.1731C57.1986 50.1731 56.5694 49.9923 56.1211 49.6666C55.6704 49.3393 55.4058 48.8671 55.4058 48.3007C55.4058 47.7494 55.6712 47.2829 56.1212 46.9574C56.5692 46.6334 57.1982 46.4497 57.9335 46.4497C58.6583 46.4497 59.282 46.6335 59.7272 46.9576ZM62.789 50.6103H56.3974V53.9511H62.789V50.6103ZM60.3397 48.3007C60.3397 47.2694 59.3515 46.5497 57.9335 46.5497C56.494 46.5497 55.5058 47.2694 55.5058 48.3007C55.5058 49.3642 56.494 50.0731 57.9335 50.0731C59.3515 50.0731 60.3397 49.3642 60.3397 48.3007ZM56.8485 48.3007C56.8378 47.8388 57.2782 47.581 57.9335 47.581C58.5888 47.581 59.0399 47.8388 59.0399 48.3007C59.0399 48.7948 58.5888 49.0634 57.9335 49.0634C57.2782 49.0634 56.8378 48.7948 56.8485 48.3007Z" fill="black"/>
<path fill-rule="evenodd" clip-rule="evenodd" d="M53.8874 47.4265C51.8057 47.112 50.6933 45.9198 50.6933 44.8524V44.5302H49.286V44.8524C49.2755 45.9621 48.1629 47.1341 46.0915 47.4582C46.0573 47.4635 46.0229 47.4687 45.9882 47.4735L46.4931 48.5478C48.0915 48.3083 49.2861 47.5842 49.9351 46.6105C49.9556 46.5798 49.9756 46.5487 49.995 46.5175C50.0142 46.5489 50.034 46.58 50.0543 46.6109C50.6886 47.5738 51.8778 48.2921 53.4755 48.5263L53.9911 47.4413C53.9563 47.4366 53.9217 47.4317 53.8874 47.4265ZM49.9945 46.7013C50.6535 47.6755 51.8618 48.3908 53.461 48.6252L53.5341 48.6359L54.1402 47.3605L54.0045 47.3422C51.8782 47.0552 50.7933 45.8639 50.7933 44.8524V44.4302H49.186V44.852C49.1756 45.9075 48.0892 47.0769 45.9743 47.3745L45.84 47.3934L46.4342 48.6577L46.5079 48.6466C48.1083 48.4068 49.3214 47.6856 49.9945 46.7013ZM54.4638 49.0849H45.5155V50.1806H49.4257V51.8671H50.7792V50.1806H54.4638V49.0849ZM50.8792 50.2806H54.5638V48.9849H45.4155V50.2806H49.3257V51.9671H50.8792V50.2806ZM53.4755 52.7909H47.9325V51.0185H46.5683V53.8866H53.4755V52.7909ZM48.0325 52.6909V50.9185H46.4683V53.9866H53.5755V52.6909H48.0325Z" fill="black"/>
<path fill-rule="evenodd" clip-rule="evenodd" d="M43.8753 44.1831V46.8472H45.1966V48.1751H43.8753V51.4515H42.3003V44.1831H43.8753ZM43.7753 48.0751H45.0966V46.9472H43.7753V44.2831H42.4003V51.3515H43.7753V48.0751ZM40.9104 44.9673V46.263H37.8704V48.533C39.5726 48.5208 40.52 48.4647 41.5843 48.2352L41.6908 48.2122L41.8559 49.5075L41.7656 49.5265C40.5301 49.7866 39.3932 49.8401 37.2226 49.8401H36.2954V44.9673H40.9104ZM37.8704 48.633C37.8374 48.6333 37.804 48.6335 37.7704 48.6337V46.163H40.8104V45.0673H36.3954V49.7401H37.2226C39.3925 49.7401 40.5204 49.6864 41.745 49.4286L41.6054 48.3329C41.5725 48.34 41.5398 48.3469 41.5072 48.3537C40.4714 48.5681 39.5225 48.6212 37.8704 48.633ZM44.2298 52.6909V53.9866H37.3374V50.4995H38.9017V52.6909H44.2298ZM44.1298 52.7909H38.8017V50.5995H37.4374V53.8866H44.1298V52.7909Z" fill="black"/>
</svg>
