<svg width="128" height="56" viewBox="0 0 128 56" fill="none" xmlns="http://www.w3.org/2000/svg">
<path fill-rule="evenodd" clip-rule="evenodd" d="M125.353 1.2247C124.895 1.02996 124.403 0.929743 123.906 0.929932C123.158 0.930219 122.428 1.15806 121.807 1.58387C121.187 2.00962 120.704 2.61393 120.419 3.31966C120.37 3.44105 120.327 3.56452 120.291 3.68958H7.97327V2.01179C7.97279 1.77706 7.88175 1.55085 7.71812 1.38298C7.55428 1.2149 7.3303 1.11903 7.09578 1.11853H2.08242C1.84757 1.11853 1.62364 1.21417 1.45941 1.38232C1.29538 1.55025 1.20409 1.77725 1.20361 2.0123V7.15624C1.20409 7.39128 1.29538 7.61779 1.45941 7.78572C1.62364 7.95387 1.84757 8.04951 2.08242 8.04951H3.71094V33.7619C3.27801 33.868 2.86468 34.0524 2.49113 34.3084C1.87097 34.7336 1.38856 35.3371 1.10393 36.0421C0.819332 36.747 0.744961 37.5224 0.889971 38.2703C1.03499 39.0182 1.39308 39.7061 1.91993 40.2467C2.44685 40.7872 3.11897 41.1561 3.85167 41.3057C4.5844 41.4552 5.34384 41.3784 6.03364 41.0852C6.72337 40.7921 7.31186 40.2962 7.72543 39.6612C7.93824 39.3345 8.0999 38.9783 8.20668 38.6057H120.522V40.2834C120.522 40.5182 120.613 40.7444 120.777 40.9123C120.941 41.0803 121.165 41.1762 121.399 41.1767H126.414C126.649 41.1762 126.872 41.0803 127.036 40.9123C127.2 40.7444 127.291 40.5177 127.291 40.2829V35.1409C127.291 34.9058 127.2 34.6791 127.037 34.5108C126.873 34.3424 126.649 34.2462 126.414 34.2457H124.784V8.55667C124.978 8.50924 125.169 8.44593 125.355 8.36694C126.045 8.07348 126.634 7.57705 127.048 6.94142C127.462 6.30585 127.682 5.55929 127.682 4.7961C127.682 4.28914 127.585 3.787 127.396 3.31832C127.207 2.84963 126.929 2.42338 126.579 2.06408C126.228 1.70476 125.812 1.41942 125.353 1.2247ZM7.97327 5.47712H120.192C120.196 5.50145 120.201 5.52576 120.206 5.55004C120.351 6.29869 120.709 6.98717 121.237 7.52811C121.73 8.03409 122.351 8.38974 123.029 8.55603V34.2457H121.399C121.164 34.2462 120.94 34.3424 120.776 34.5108C120.612 34.6791 120.522 34.9058 120.522 35.1409V36.8181H8.29664C8.15924 36.0557 7.79972 35.3468 7.25673 34.7897C6.76036 34.2805 6.13907 33.9273 5.46592 33.7622V8.04951H7.09631C7.33084 8.04901 7.55428 7.95314 7.71812 7.78506C7.88175 7.61718 7.97279 7.39045 7.97327 7.15573V5.47712ZM123.907 2.71747C124.305 2.71727 124.694 2.83812 125.027 3.06554C125.359 3.29304 125.619 3.61719 125.773 3.99773C125.926 4.37832 125.967 4.79753 125.889 5.20206C125.81 5.60657 125.617 5.97732 125.334 6.26775C125.051 6.55811 124.692 6.75514 124.301 6.83493C123.91 6.91472 123.506 6.87395 123.137 6.71749C122.769 6.56099 122.453 6.29547 122.23 5.9535C122.007 5.61151 121.888 5.20878 121.888 4.79627C121.889 4.24332 122.103 3.71443 122.482 3.32522C122.861 2.93624 123.374 2.71846 123.907 2.71747ZM2.95991 6.2687V2.90607H6.21829V6.2687H2.95991ZM4.58867 35.4434C4.98596 35.4432 5.37494 35.5638 5.70644 35.7908C6.03802 36.0179 6.29747 36.3414 6.451 36.7212C6.60455 37.101 6.64494 37.5194 6.5668 37.9232C6.48868 38.3269 6.29575 38.6969 6.01338 38.9868C5.73108 39.2766 5.37213 39.4732 4.98231 39.5529C4.59253 39.6325 4.18842 39.5918 3.8208 39.4357C3.45311 39.2795 3.13779 39.0145 2.91547 38.6732C2.6931 38.3318 2.57404 37.9298 2.57404 37.518C2.57404 36.966 2.78777 36.4378 3.16629 36.0492C3.5446 35.6609 4.05635 35.4437 4.58867 35.4434ZM122.277 36.0346V39.3892H125.536V36.0346H122.277Z" fill="white"/>
<path fill-rule="evenodd" clip-rule="evenodd" d="M56.7943 15.8298V33.3578H58.7943V28.029C59.5855 28.1897 60.4483 28.2698 61.3823 28.2698C63.2689 28.2698 64.6401 27.7862 65.467 26.794C66.3058 25.7908 66.7143 24.1615 66.7143 21.9298C66.7143 19.701 66.3706 18.0824 65.6638 17.0959C64.952 16.0864 63.8128 15.5898 62.2703 15.5898C61.1144 15.5898 59.9473 15.9345 58.7703 16.6183V15.8298H56.7943ZM64.6903 21.9058C64.6903 23.5641 64.4263 24.7377 63.9171 25.4476L63.9162 25.4487C63.4303 26.1472 62.5651 26.5098 61.2863 26.5098C60.7168 26.5098 59.8871 26.4271 58.7943 26.2601V18.3182L59.196 18.1068C59.5084 17.9507 59.9337 17.7929 60.4741 17.6339C61.0269 17.476 61.5374 17.3978 62.0063 17.3978C62.8879 17.3978 63.543 17.7356 63.9868 18.4089L63.9877 18.4102C64.4498 19.088 64.6903 20.2459 64.6903 21.9058Z" fill="white"/>
<path fill-rule="evenodd" clip-rule="evenodd" d="M36.7318 28.0298H38.7318V18.2461L39.0856 18.0588C39.365 17.9192 39.7654 17.7775 40.2901 17.6343L40.292 17.6338C40.8278 17.4762 41.3463 17.3978 41.8478 17.3978C42.8878 17.3978 43.5185 17.7043 43.7979 18.2777L43.7993 18.2804C43.9514 18.5693 44.0694 18.9999 44.1487 19.5794C44.2279 20.1574 44.2678 20.8765 44.2678 21.7378V28.0298H46.2678V21.6898C46.2678 20.7843 46.2418 20.0371 46.1894 19.449C46.1425 18.9219 46.0739 18.5159 45.9808 18.2373L46.3546 18.0602C46.6502 17.9202 47.0752 17.7781 47.6327 17.6347L47.6353 17.634C48.1873 17.4763 48.722 17.3978 49.2398 17.3978C50.2625 17.3978 50.8955 17.7037 51.1908 18.2795L51.1913 18.2804C51.3436 18.5697 51.4615 18.9926 51.5408 19.5558C51.6199 20.1176 51.6598 20.8126 51.6598 21.6418V28.0298H53.6598V21.5938C53.6598 19.3694 53.3812 17.8067 52.8039 16.9316C52.2326 16.0253 51.1172 15.5898 49.5038 15.5898C48.8512 15.5898 48.0973 15.7202 47.2435 15.9779C46.4463 16.2079 45.7836 16.4756 45.2578 16.7821C44.6313 15.9789 43.5722 15.5898 42.1118 15.5898C41.0022 15.5898 39.8671 15.927 38.7078 16.595V15.8298H36.7318V28.0298Z" fill="white"/>
<path fill-rule="evenodd" clip-rule="evenodd" d="M31.4818 15.8301V28.0301H33.4818V15.8301H31.4818Z" fill="white"/>
<path fill-rule="evenodd" clip-rule="evenodd" d="M31.4818 11.0298V13.3178H33.4818V11.0298H31.4818Z" fill="white"/>
<path fill-rule="evenodd" clip-rule="evenodd" d="M26.2318 15.8301V28.0301H28.2318V15.8301H26.2318Z" fill="white"/>
<path fill-rule="evenodd" clip-rule="evenodd" d="M26.2318 11.0298V13.3178H28.2318V11.0298H26.2318Z" fill="white"/>
<path fill-rule="evenodd" clip-rule="evenodd" d="M21.6755 24.6418C21.6755 25.3023 21.4399 25.7621 20.9797 26.0443C20.5223 26.3186 19.8397 26.4618 18.9195 26.4618C17.9992 26.4618 16.6291 26.3268 14.8062 26.0549L14.6984 26.0389L14.5901 27.7977L15.3991 27.9325C16.7466 28.1571 17.9204 28.2698 18.9195 28.2698C20.4493 28.2698 21.6259 27.9805 22.4343 27.3867C23.2667 26.7872 23.6755 25.8489 23.6755 24.5938C23.6755 23.351 23.3776 22.4706 22.7478 21.9941C22.1359 21.531 21.1079 21.1839 19.6806 20.9433C18.9703 20.8156 18.3893 20.6922 17.9369 20.5731C17.4835 20.4538 17.1662 20.3406 16.9777 20.2353C16.6151 20.0172 16.4275 19.6543 16.4275 19.1218C16.4275 18.5411 16.6337 18.1183 17.0387 17.8359C17.4502 17.5489 18.08 17.3978 18.9435 17.3978C19.9605 17.3978 21.355 17.5251 23.1292 17.7808L23.2399 17.7968L23.2941 16.0626L22.5371 15.9274L22.5345 15.927C21.0599 15.7026 19.8304 15.5898 18.8475 15.5898C17.6002 15.5898 16.5468 15.874 15.6949 16.4474C14.8466 17.0296 14.4275 17.9277 14.4275 19.1218C14.4275 20.3025 14.7264 21.1428 15.3565 21.6026C15.9685 22.0492 16.9883 22.38 18.3998 22.6046C19.102 22.7163 19.6784 22.8317 20.13 22.9506C20.5836 23.0699 20.904 23.191 21.0991 23.311L21.1015 23.3125C21.4735 23.527 21.6755 23.9553 21.6755 24.6418Z" fill="white"/>
<path fill-rule="evenodd" clip-rule="evenodd" d="M105.462 28.0773L104.7 27.9958V10.5979H106.676V16.3749C107.853 15.8526 108.996 15.5899 110.104 15.5899C111.738 15.5899 112.904 16.0593 113.57 17.0243C114.246 17.9638 114.572 19.5997 114.572 21.9059C114.572 24.2159 114.165 25.8709 113.324 26.8432C112.495 27.8053 110.977 28.2699 108.808 28.2699C108.132 28.2699 107.016 28.2056 105.464 28.0776L105.462 28.0773ZM111.799 25.4479C112.292 24.7545 112.548 23.5733 112.548 21.8819C112.548 20.1874 112.347 19.0278 111.963 18.381L111.962 18.3802C111.585 17.7319 110.913 17.3979 109.912 17.3979C108.997 17.3979 108.057 17.5714 107.09 17.92L106.676 18.0648V26.3493C107.668 26.4245 108.369 26.4619 108.784 26.4619C110.346 26.4619 111.333 26.1097 111.799 25.4479Z" fill="white"/>
<path fill-rule="evenodd" clip-rule="evenodd" d="M99.3491 20.4949V19.5538C99.3491 18.7482 99.1746 18.1968 98.8503 17.8726C98.5211 17.5433 98.0688 17.3738 97.4811 17.3738C96.2052 17.3738 94.8811 17.4536 93.5086 17.6132L93.5067 17.6134L92.6587 17.6954L92.5767 16.1367L92.6615 16.1198C94.426 15.7669 95.9928 15.5898 97.3611 15.5898C98.7329 15.5898 99.7491 15.9041 100.384 16.5556C101.034 17.206 101.349 18.2129 101.349 19.5538V25.6937C101.372 25.9601 101.486 26.1685 101.693 26.3262C101.906 26.4875 102.223 26.5998 102.654 26.6546L102.746 26.6663L102.664 28.2698H102.569C101.32 28.2698 100.356 27.9613 99.6916 27.3286C98.2607 27.9555 96.8276 28.2698 95.3931 28.2698C94.27 28.2698 93.3998 27.9519 92.7996 27.3017C92.201 26.6532 91.9091 25.7295 91.9091 24.5458C91.9091 23.363 92.2088 22.4749 92.8289 21.9047C93.4437 21.3234 94.3969 20.9754 95.671 20.8464L99.3491 20.4949ZM98.8642 26.0114L99.3491 25.8428V22.0638L95.9065 22.3894C95.1989 22.4523 94.7072 22.6553 94.4111 22.9811C94.1136 23.3083 93.9571 23.7925 93.9571 24.4498C93.9571 25.1746 94.1071 25.6995 94.3902 26.0422C94.6702 26.3811 95.094 26.5578 95.6811 26.5578C96.7575 26.5578 97.8185 26.3758 98.8642 26.0114Z" fill="white"/>
<path fill-rule="evenodd" clip-rule="evenodd" d="M87.2664 10.5979V28.0299H89.2664V10.5979H87.2664Z" fill="white"/>
<path fill-rule="evenodd" clip-rule="evenodd" d="M83.2562 26.3422L84.0575 26.2593L84.1122 27.8724L84.0231 27.8849C82.1962 28.1413 80.6313 28.2698 79.3292 28.2698C77.5832 28.2698 76.322 27.7681 75.5762 26.7406C74.8382 25.7074 74.4772 24.1215 74.4772 22.0018C74.4772 19.8873 74.8968 18.2829 75.7529 17.2056C76.6124 16.124 77.8989 15.5898 79.5932 15.5898C81.2277 15.5898 82.4673 16.0516 83.2921 16.9916C84.1157 17.9143 84.5172 19.3597 84.5172 21.3058V21.3129L84.4144 22.7738H76.5016C76.5135 24.0418 76.752 24.9669 77.2012 25.5658C77.6545 26.1703 78.4489 26.4858 79.6172 26.4858C80.8141 26.4858 82.0271 26.438 83.2562 26.3422ZM81.8177 18.1745C81.3794 17.6002 80.6473 17.3018 79.5932 17.3018C78.5587 17.3018 77.7901 17.6143 77.2698 18.2261C76.7761 18.825 76.5063 19.7877 76.4788 21.1338H82.5168C82.5061 19.7208 82.2663 18.7428 81.8187 18.1758L81.8177 18.1745Z" fill="white"/>
<path fill-rule="evenodd" clip-rule="evenodd" d="M69.5945 10.5979V28.0299H71.5945V10.5979H69.5945Z" fill="white"/>
<path d="M92.5018 52.7217V53.8174H83.5536V52.7217H87.2919V50.5088H88.6561V52.7217H92.5018ZM88.6991 46.4697C88.6991 47.8662 89.9559 49.3379 92.1903 49.6816L91.6102 50.8203C89.8915 50.5088 88.6132 49.5903 87.9686 48.3711C87.3241 49.585 86.0565 50.5142 84.3485 50.8203L83.7684 49.6816C85.9813 49.3379 87.2274 47.8555 87.2382 46.4697V45.7715H88.6991V46.4697Z" fill="white"/>
<path d="M81.9208 45.7822V46.6631C81.9208 47.5762 81.9208 48.5752 81.6737 49.9395H82.9628V51.0459H79.1493V54.999H77.7743V51.0459H74.0468V49.9395H80.288C80.535 48.6772 80.5565 47.7212 80.5565 46.8779H75.0673V45.7822H81.9208Z" fill="white"/>
<path d="M72.7792 45.2236V52.3672H71.4149V50.0469H69.1806C68.7079 50.5464 68.0258 50.8525 67.2684 50.8525C65.786 50.8525 64.6581 49.7783 64.6688 48.3281C64.6581 46.8564 65.786 45.793 67.2684 45.7822C68.0258 45.7876 68.7025 46.0884 69.1806 46.5879H71.4149V45.2236H72.7792ZM73.0155 53.7207V54.8164H66.2909V51.6475H67.6659V53.7207H73.0155ZM67.2684 47.0068C66.5058 47.0068 65.9579 47.501 65.9686 48.3281C65.9579 49.1445 66.5058 49.6387 67.2684 49.6387C67.9882 49.6387 68.5468 49.1445 68.5468 48.3281C68.5468 47.501 67.9882 47.0068 67.2684 47.0068ZM69.7714 47.6836C69.8197 47.8877 69.8466 48.1025 69.8466 48.3281C69.8466 48.543 69.8197 48.7524 69.7714 48.9512H71.4149V47.6836H69.7714Z" fill="white"/>
<path d="M62.7889 45.2129V47.6191H64.1102V48.7686H62.7889V51.1104H61.4139V45.2129H62.7889ZM62.7889 51.54V54.8809H56.3973V51.54H62.7889ZM57.7509 52.6143V53.7852H61.4354V52.6143H57.7509ZM60.8339 46.0938V47.1787H55.0331V46.0938H57.2567V45.1592H58.621V46.0938H60.8339ZM57.9335 47.4795C59.3514 47.4795 60.3397 48.1992 60.3397 49.2305C60.3397 50.2939 59.3514 51.0029 57.9335 51.0029C56.494 51.0029 55.5057 50.2939 55.5057 49.2305C55.5057 48.1992 56.494 47.4795 57.9335 47.4795ZM57.9335 48.5107C57.2782 48.5107 56.8378 48.7686 56.8485 49.2305C56.8378 49.7246 57.2782 49.9932 57.9335 49.9932C58.5887 49.9932 59.0399 49.7246 59.0399 49.2305C59.0399 48.7686 58.5887 48.5107 57.9335 48.5107Z" fill="white"/>
<path d="M50.6932 45.7822C50.6932 46.8672 51.8427 48.0811 53.9911 48.3711L53.4755 49.4561C51.8265 49.2144 50.6127 48.457 49.995 47.4473C49.3612 48.4678 48.142 49.2305 46.493 49.4775L45.9882 48.4033C48.1259 48.1025 49.2753 46.9102 49.286 45.7822V45.46H50.6932V45.7822ZM54.4637 50.0146V51.1104H50.7792V52.7969H49.4257V51.1104H45.5155V50.0146H54.4637ZM53.4755 53.7207V54.8164H46.5682V51.9482H47.9325V53.7207H53.4755Z" fill="white"/>
<path d="M43.7753 45.2129V47.877H45.0966V49.0049H43.7753V52.2812H42.4003V45.2129H43.7753ZM40.8104 45.9971V47.0928H37.7704V49.5635C39.5375 49.5527 40.5096 49.499 41.6053 49.2627L41.745 50.3584C40.5204 50.6162 39.3925 50.6699 37.2225 50.6699H36.3954V45.9971H40.8104ZM44.1298 53.7207V54.8164H37.4374V51.5293H38.8016V53.7207H44.1298Z" fill="white"/>
<path fill-rule="evenodd" clip-rule="evenodd" d="M92.5019 52.7216H88.6562V50.5087H87.2919V52.7216H83.5536V53.8173H92.5019V52.7216ZM87.1919 52.6216H83.4536V53.9173H92.6019V52.6216H88.7561V50.4087H87.1919V52.6216ZM92.0867 49.6647C89.9171 49.292 88.6991 47.8444 88.6991 46.4696V45.7714H87.2382V46.4696C87.2276 47.8336 86.0202 49.2913 83.872 49.6645C83.8377 49.6705 83.8032 49.6761 83.7685 49.6815L84.3485 50.8202C86.0072 50.5229 87.2506 49.638 87.9113 48.4754C87.9309 48.4408 87.9501 48.406 87.9687 48.371C87.9872 48.4061 88.0063 48.4409 88.0258 48.4755C88.6871 49.6426 89.9409 50.5177 91.6103 50.8202L92.1903 49.6815C92.1555 49.6762 92.121 49.6706 92.0867 49.6647ZM87.9685 48.5763C87.2844 49.742 86.0263 50.6211 84.3662 50.9186L84.2931 50.9317L83.6167 49.6039L83.7531 49.5827C85.9312 49.2444 87.1279 47.793 87.1382 46.4689V45.6714H88.7991V46.4696C88.7991 47.8029 90.0048 49.2441 92.2055 49.5827L92.3422 49.6037L91.6656 50.9319L91.5924 50.9186C89.9228 50.616 88.6537 49.7468 87.9685 48.5763Z" fill="white"/>
<path fill-rule="evenodd" clip-rule="evenodd" d="M81.9208 46.663V45.7821H75.0673V46.8778H80.5565C80.5565 46.911 80.5565 46.9443 80.5564 46.9778C80.5545 47.7967 80.5253 48.7268 80.288 49.9394H74.0468V51.0458H77.7743V54.9989H79.1493V51.0458H82.9628V49.9394H81.6737C81.6798 49.9058 81.6857 49.8725 81.6915 49.8394C81.9208 48.526 81.9208 47.5536 81.9208 46.663ZM81.793 49.8394C82.0208 48.5262 82.0208 47.5514 82.0208 46.664V45.6821H74.9673V46.9778H80.4564C80.4546 47.7753 80.4267 48.6751 80.2054 49.8394H73.9468V51.1458H77.6743V55.0989H79.2493V51.1458H83.0628V49.8394H81.793Z" fill="white"/>
<path fill-rule="evenodd" clip-rule="evenodd" d="M72.8792 45.1235V52.4671H71.3149V50.1468H69.2231C68.7328 50.6479 68.0371 50.9524 67.2684 50.9524C65.7348 50.9524 64.558 49.8373 64.5688 48.328C64.558 46.7971 65.7348 45.6932 67.2677 45.6821L67.2692 45.6821C68.0374 45.6876 68.7276 45.9869 69.2228 46.4878H71.3149V45.1235H72.8792ZM71.4149 46.5878H69.1806C68.7025 46.0883 68.0258 45.7875 67.2684 45.7821C65.786 45.7929 64.6581 46.8563 64.6688 48.328C64.6581 49.7782 65.786 50.8524 67.2684 50.8524C68.0258 50.8524 68.7079 50.5463 69.1806 50.0468H71.4149V52.3671H72.7792V45.2235H71.4149V46.5878ZM73.1155 53.6206V54.9163H66.1909V51.5474H67.7659V53.6206H73.1155ZM66.0686 48.3267L66.0687 48.3293C66.0636 48.714 66.1896 49.014 66.3984 49.2179C66.6077 49.4224 66.9087 49.5386 67.2684 49.5386C67.6052 49.5386 67.8986 49.4233 68.1074 49.2181C68.3158 49.0134 68.4468 48.7125 68.4468 48.328C68.4468 47.9378 68.3155 47.6342 68.1072 47.4283C67.8985 47.222 67.6052 47.1067 67.2684 47.1067C66.9088 47.1067 66.6078 47.2229 66.3986 47.4285C66.1899 47.6336 66.0636 47.9363 66.0686 48.3267ZM69.895 47.7835C69.9284 47.9578 69.9466 48.1393 69.9466 48.328C69.9466 48.507 69.9286 48.6823 69.8956 48.8511H71.3149V47.7835H69.895ZM69.7931 47.7835C69.8277 47.9575 69.8466 48.139 69.8466 48.328C69.8466 48.5071 69.8279 48.6825 69.7937 48.8511C69.7869 48.8847 69.7794 48.918 69.7714 48.9511H71.4149V47.6835H69.7714C69.7792 47.7165 69.7865 47.7499 69.7931 47.7835ZM73.0155 53.7206H67.6659V51.6474H66.2909V54.8163H73.0155V53.7206ZM65.9686 48.328C65.9579 47.5009 66.5057 47.0067 67.2684 47.0067C67.9882 47.0067 68.5468 47.5009 68.5468 48.328C68.5468 49.1444 67.9882 49.6386 67.2684 49.6386C66.5057 49.6386 65.9579 49.1444 65.9686 48.328Z" fill="white"/>
<path fill-rule="evenodd" clip-rule="evenodd" d="M62.889 45.1128V47.519H64.2103V48.8685H62.889V51.2103H61.314V45.1128H62.889ZM62.789 48.7685H64.1103V47.619H62.789V45.2128H61.414V51.1103H62.789V48.7685ZM62.889 51.4399V54.9808H56.2974V51.4399H62.889ZM60.9339 45.9937V47.2786H54.9331V45.9937H57.1567V45.0591H58.721V45.9937H60.9339ZM58.621 46.0937V45.1591H57.2567V46.0937H55.0331V47.1786H60.8339V46.0937H58.621ZM56.9485 49.2325C56.9439 49.4443 57.0336 49.6035 57.1973 49.7142C57.3656 49.828 57.6174 49.8931 57.9335 49.8931C58.2494 49.8931 58.5045 49.828 58.6772 49.7136C58.8457 49.6021 58.9399 49.4419 58.9399 49.2304C58.9399 49.0379 58.8485 48.8882 58.6793 48.782C58.506 48.6732 58.25 48.6106 57.9335 48.6106C57.6169 48.6106 57.3641 48.6733 57.1952 48.7815C57.031 48.8867 56.944 49.0354 56.9485 49.228L56.9485 49.2325ZM57.7509 53.7851V52.6142H61.4354V53.7851H57.7509ZM61.3354 53.6851V52.7142H57.8509V53.6851H61.3354ZM59.7272 47.8873C60.1743 48.2128 60.4397 48.6792 60.4397 49.2304C60.4397 49.7968 60.1751 50.2688 59.7274 50.5961C59.2818 50.9218 58.658 51.1028 57.9335 51.1028C57.1986 51.1028 56.5694 50.922 56.1211 50.5963C55.6704 50.269 55.4058 49.7968 55.4058 49.2304C55.4058 48.6791 55.6712 48.2126 56.1212 47.8871C56.5692 47.5631 57.1982 47.3794 57.9335 47.3794C58.6583 47.3794 59.282 47.5632 59.7272 47.8873ZM62.789 51.5399H56.3974V54.8808H62.789V51.5399ZM60.3397 49.2304C60.3397 48.1991 59.3515 47.4794 57.9335 47.4794C56.494 47.4794 55.5058 48.1991 55.5058 49.2304C55.5058 50.2938 56.494 51.0028 57.9335 51.0028C59.3515 51.0028 60.3397 50.2938 60.3397 49.2304ZM56.8485 49.2304C56.8378 48.7685 57.2782 48.5106 57.9335 48.5106C58.5888 48.5106 59.0399 48.7685 59.0399 49.2304C59.0399 49.7245 58.5888 49.9931 57.9335 49.9931C57.2782 49.9931 56.8378 49.7245 56.8485 49.2304Z" fill="white"/>
<path fill-rule="evenodd" clip-rule="evenodd" d="M53.8874 48.3562C51.8057 48.0416 50.6933 46.8495 50.6933 45.7821V45.4599H49.286V45.7821C49.2755 46.8918 48.1629 48.0638 46.0915 48.3879C46.0573 48.3932 46.0229 48.3983 45.9882 48.4032L46.4931 49.4774C48.0915 49.2379 49.2861 48.5139 49.9351 47.5402C49.9556 47.5095 49.9756 47.4784 49.995 47.4472C50.0142 47.4786 50.034 47.5097 50.0543 47.5406C50.6886 48.5035 51.8778 49.2218 53.4755 49.456L53.9911 48.371C53.9563 48.3663 53.9217 48.3614 53.8874 48.3562ZM49.9945 47.631C50.6535 48.6052 51.8618 49.3205 53.461 49.5549L53.5341 49.5656L54.1402 48.2902L54.0045 48.2719C51.8782 47.9848 50.7933 46.7936 50.7933 45.7821V45.3599H49.186V45.7817C49.1756 46.8372 48.0892 48.0066 45.9743 48.3042L45.84 48.3231L46.4342 49.5874L46.5079 49.5763C48.1083 49.3365 49.3214 48.6152 49.9945 47.631ZM54.4638 50.0146H45.5155V51.1103H49.4257V52.7968H50.7792V51.1103H54.4638V50.0146ZM50.8792 51.2103H54.5638V49.9146H45.4155V51.2103H49.3257V52.8968H50.8792V51.2103ZM53.4755 53.7206H47.9325V51.9481H46.5683V54.8163H53.4755V53.7206ZM48.0325 53.6206V51.8481H46.4683V54.9163H53.5755V53.6206H48.0325Z" fill="white"/>
<path fill-rule="evenodd" clip-rule="evenodd" d="M43.8753 45.1128V47.7769H45.1966V49.1048H43.8753V52.3812H42.3003V45.1128H43.8753ZM43.7753 49.0048H45.0966V47.8769H43.7753V45.2128H42.4003V52.2812H43.7753V49.0048ZM40.9104 45.897V47.1927H37.8704V49.4627C39.5726 49.4505 40.52 49.3944 41.5843 49.1648L41.6908 49.1419L41.8559 50.4372L41.7656 50.4562C40.5301 50.7163 39.3932 50.7698 37.2226 50.7698H36.2954V45.897H40.9104ZM37.8704 49.5627C37.8374 49.563 37.804 49.5632 37.7704 49.5634V47.0927H40.8104V45.997H36.3954V50.6698H37.2226C39.3925 50.6698 40.5204 50.6161 41.745 50.3583L41.6054 49.2626C41.5725 49.2697 41.5398 49.2766 41.5072 49.2833C40.4714 49.4978 39.5225 49.5509 37.8704 49.5627ZM44.2298 53.6206V54.9163H37.3374V51.4292H38.9017V53.6206H44.2298ZM44.1298 53.7206H38.8017V51.5292H37.4374V54.8163H44.1298V53.7206Z" fill="white"/>
</svg>
